<svg xmlns="http://www.w3.org/2000/svg" xmlns:xlink="http://www.w3.org/1999/xlink" width="513.016" height="498.738" viewBox="0 0 513.016 498.738">
  <defs>
    <linearGradient id="linear-gradient" y1="0.5" x2="1" y2="0.5" gradientUnits="objectBoundingBox">
      <stop offset="0" stop-color="#aa80f9"/>
      <stop offset="0.996" stop-color="#6165d7"/>
    </linearGradient>
    <clipPath id="clip-path">
      <path id="Path_12" data-name="Path 12" d="M824.371,515.187c-1.823-7.712-8.617-63.153-24.6-73.32-18.206-11.583-30.48-2.812-36.271-22-9.051-29.988-38.633-53.033-70.165-20.663-31.121,31.948,25.614,132.605,61.7,148.36,29.646,22.543,48.361,21.784,57.6,63.939C819.12,641.031,831.226,544.182,824.371,515.187Z" transform="translate(-684.339 -383.499)" fill="none"/>
    </clipPath>
    <linearGradient id="linear-gradient-2" x1="0.799" y1="-0.563" x2="1.528" y2="0.801" gradientUnits="objectBoundingBox">
      <stop offset="0.004" stop-color="#e38ddd"/>
      <stop offset="1" stop-color="#9571f6"/>
    </linearGradient>
    <clipPath id="clip-path-2">
      <path id="Path_18" data-name="Path 18" d="M741.373,1105.647c-13.793,16.559-29.284,35.35-51.634,16.557-18.606-15.644-30.255-26.98-57.641-20.937s-54.93-4.774-56.912-32.69c-2.086-29.377-38.926-53.913-25.358-81.582,23.642-48.212,73.765,5.973,95.634,38.641s37.545,7.232,59.742-3.826C735.507,1006.713,752.517,1092.268,741.373,1105.647Z" transform="translate(-546.835 -967.857)" fill="none"/>
    </clipPath>
    <linearGradient id="linear-gradient-3" x1="-4.606" y1="-0.995" x2="-4.147" y2="0.96" xlink:href="#linear-gradient"/>
    <clipPath id="clip-path-3">
      <path id="Path_25" data-name="Path 25" d="M2392.785,1462.383c7.071,18.66,13.5,37.94,20.518,56.77,11.381.372,24.776.532,26.612-13.527,2.552-19.546,35.833-28.638,51.7-29.79,19.638-1.426,61.8-8.453,51.516-35.518-8.561-22.531-22.769-33.02,2.146-48.721s34.173-36.047,21.028-59.583c-13.833-24.768,9.386-60.352-15.909-75.377-44.076-26.18-72.606,49.149-67.837,89.408s-17.741,32.589-43.343,41.792c-34.952,12.564-3.166,43.856-15.453,60.275C2414.131,1460.983,2405.959,1459.112,2392.785,1462.383Z" transform="translate(-2392.785 -1251.234)" fill="none"/>
    </clipPath>
    <clipPath id="clip-path-4">
      <path id="Path_34" data-name="Path 34" d="M2657.655,851.264q-20.746.58-41.6.222c-.184.236-9.754-28.293,1.465-46.109,22.295-34.611-.943-58.075-9.015-72.979-12.388-20.84-12.819-48.74,12.666-47.979,24.727.167,19.693-49.795,8.88-87.066-6.779-17.873,6.726-43.379,23.238-51.567,16.778-8.806,36.562-.294,48.477,35.614,15.731,41.235-10.895,72.448-18.668,95.874-7.657,23,21.731,35.358,3.752,57.705-14.968,19.68-35.406,35.528-23.514,54.854C2675.409,808.886,2676.333,826.034,2657.655,851.264Z" transform="translate(-2600.254 -542.579)" fill="none"/>
    </clipPath>
    <linearGradient id="linear-gradient-5" y1="0.5" x2="1" y2="0.5" gradientUnits="objectBoundingBox">
      <stop offset="0" stop-color="#444b8c"/>
      <stop offset="0.996" stop-color="#26264f"/>
    </linearGradient>
    <linearGradient id="linear-gradient-6" x1="0.208" y1="1.012" x2="1.21" y2="-0.878" xlink:href="#linear-gradient-2"/>
    <linearGradient id="linear-gradient-8" y1="0.5" x2="1" y2="0.5" gradientUnits="objectBoundingBox">
      <stop offset="0" stop-color="#ff9085"/>
      <stop offset="1" stop-color="#fb6fbb"/>
    </linearGradient>
    <linearGradient id="linear-gradient-13" x1="0.468" y1="2.148" x2="0.492" y2="0.807" xlink:href="#linear-gradient-5"/>
    <linearGradient id="linear-gradient-14" x1="0.468" y1="2.148" x2="0.492" y2="0.807" xlink:href="#linear-gradient"/>
    <linearGradient id="linear-gradient-17" x1="0.513" y1="-0.617" x2="0.434" y2="5.692" xlink:href="#linear-gradient-2"/>
    <linearGradient id="linear-gradient-18" x1="0.623" y1="-0.475" x2="-0.07" y2="5.033" gradientUnits="objectBoundingBox">
      <stop offset="0" stop-color="#311944"/>
      <stop offset="1" stop-color="#a03976"/>
    </linearGradient>
    <linearGradient id="linear-gradient-19" x1="0.625" y1="-0.475" x2="-0.077" y2="5.032" xlink:href="#linear-gradient-18"/>
    <linearGradient id="linear-gradient-20" x1="0.631" y1="-0.475" x2="-0.112" y2="5.031" xlink:href="#linear-gradient-18"/>
    <linearGradient id="linear-gradient-21" x1="0.643" y1="-0.475" x2="-0.158" y2="5.031" xlink:href="#linear-gradient-18"/>
    <linearGradient id="linear-gradient-22" x1="66.945" y1="-463.821" x2="66.703" y2="-449.431" xlink:href="#linear-gradient-18"/>
    <linearGradient id="linear-gradient-23" x1="65.406" y1="-465.117" x2="65.164" y2="-450.556" xlink:href="#linear-gradient-18"/>
    <linearGradient id="linear-gradient-24" x1="63.363" y1="-462.782" x2="63.121" y2="-447.379" xlink:href="#linear-gradient-18"/>
    <linearGradient id="linear-gradient-25" x1="4.954" y1="-4.205" x2="-3.253" y2="4.457" gradientUnits="objectBoundingBox">
      <stop offset="0" stop-color="#444b8c"/>
      <stop offset="0.996" stop-color="#3e4177"/>
    </linearGradient>
    <linearGradient id="linear-gradient-26" x1="3.989" y1="-3.128" x2="-4.243" y2="5.421" xlink:href="#linear-gradient-25"/>
    <linearGradient id="linear-gradient-27" x1="3.018" y1="-2.079" x2="-5.238" y2="6.364" xlink:href="#linear-gradient-25"/>
    <linearGradient id="linear-gradient-28" x1="2.042" y1="-1.056" x2="-6.24" y2="7.281" xlink:href="#linear-gradient-25"/>
    <linearGradient id="linear-gradient-29" x1="5.372" y1="-4.558" x2="-2.878" y2="4" xlink:href="#linear-gradient-25"/>
    <linearGradient id="linear-gradient-30" x1="4.403" y1="-3.489" x2="-3.872" y2="4.959" xlink:href="#linear-gradient-25"/>
    <linearGradient id="linear-gradient-31" x1="3.429" y1="-2.449" x2="-4.872" y2="5.897" xlink:href="#linear-gradient-25"/>
    <linearGradient id="linear-gradient-32" x1="2.448" y1="-1.433" x2="-5.878" y2="6.811" xlink:href="#linear-gradient-25"/>
    <linearGradient id="linear-gradient-33" x1="5.794" y1="-4.904" x2="-2.499" y2="3.555" xlink:href="#linear-gradient-25"/>
    <linearGradient id="linear-gradient-34" x1="4.822" y1="-3.844" x2="-3.497" y2="4.51" xlink:href="#linear-gradient-25"/>
    <linearGradient id="linear-gradient-35" x1="3.843" y1="-2.811" x2="-4.501" y2="5.443" xlink:href="#linear-gradient-25"/>
    <linearGradient id="linear-gradient-36" x1="2.858" y1="-1.802" x2="-5.51" y2="6.353" xlink:href="#linear-gradient-25"/>
    <linearGradient id="linear-gradient-37" x1="6.22" y1="-5.245" x2="-2.116" y2="3.121" xlink:href="#linear-gradient-25"/>
    <linearGradient id="linear-gradient-38" x1="5.243" y1="-4.192" x2="-3.117" y2="4.071" xlink:href="#linear-gradient-25"/>
    <linearGradient id="linear-gradient-39" x1="4.261" y1="-3.167" x2="-4.125" y2="5" xlink:href="#linear-gradient-25"/>
    <linearGradient id="linear-gradient-40" x1="6.652" y1="-5.573" x2="-1.729" y2="2.695" xlink:href="#linear-gradient-25"/>
    <linearGradient id="linear-gradient-41" x1="5.671" y1="-4.529" x2="-2.735" y2="3.64" xlink:href="#linear-gradient-25"/>
    <linearGradient id="linear-gradient-42" x1="4.684" y1="-3.512" x2="-3.746" y2="4.564" xlink:href="#linear-gradient-25"/>
    <linearGradient id="linear-gradient-43" x1="3.451" y1="-0.581" x2="-4.91" y2="2.465" xlink:href="#linear-gradient-25"/>
    <linearGradient id="linear-gradient-44" x1="0.524" y1="-0.538" x2="0.388" y2="5.323" xlink:href="#linear-gradient-5"/>
    <linearGradient id="linear-gradient-45" x1="0.524" y1="-0.537" x2="0.387" y2="5.319" xlink:href="#linear-gradient-5"/>
    <linearGradient id="linear-gradient-46" x1="0.525" y1="-0.536" x2="0.385" y2="5.314" xlink:href="#linear-gradient-5"/>
    <linearGradient id="linear-gradient-47" x1="0.525" y1="-0.535" x2="0.383" y2="5.31" xlink:href="#linear-gradient-5"/>
    <linearGradient id="linear-gradient-48" x1="0.524" y1="-0.537" x2="0.386" y2="5.319" xlink:href="#linear-gradient-5"/>
    <linearGradient id="linear-gradient-49" x1="0.525" y1="-0.536" x2="0.385" y2="5.315" xlink:href="#linear-gradient-5"/>
    <linearGradient id="linear-gradient-50" x1="0.525" y1="-0.535" x2="0.383" y2="5.31" xlink:href="#linear-gradient-5"/>
    <linearGradient id="linear-gradient-51" x1="0.525" y1="-0.534" x2="0.381" y2="5.306" xlink:href="#linear-gradient-5"/>
    <linearGradient id="linear-gradient-52" x1="0.525" y1="-0.536" x2="0.385" y2="5.316" xlink:href="#linear-gradient-5"/>
    <linearGradient id="linear-gradient-53" x1="0.525" y1="-0.535" x2="0.383" y2="5.311" xlink:href="#linear-gradient-5"/>
    <linearGradient id="linear-gradient-54" x1="0.525" y1="-0.534" x2="0.381" y2="5.307" xlink:href="#linear-gradient-5"/>
    <linearGradient id="linear-gradient-55" x1="0.526" y1="-0.533" x2="0.38" y2="5.303" xlink:href="#linear-gradient-5"/>
    <linearGradient id="linear-gradient-56" x1="0.525" y1="-0.535" x2="0.383" y2="5.312" xlink:href="#linear-gradient-5"/>
    <linearGradient id="linear-gradient-57" x1="0.525" y1="-0.534" x2="0.381" y2="5.308" xlink:href="#linear-gradient-5"/>
    <linearGradient id="linear-gradient-58" x1="0.526" y1="-0.533" x2="0.379" y2="5.303" xlink:href="#linear-gradient-5"/>
    <linearGradient id="linear-gradient-59" x1="0.525" y1="-0.534" x2="0.381" y2="5.308" xlink:href="#linear-gradient-5"/>
    <linearGradient id="linear-gradient-60" x1="0.526" y1="-0.534" x2="0.379" y2="5.304" xlink:href="#linear-gradient-5"/>
    <linearGradient id="linear-gradient-61" x1="0.526" y1="-0.533" x2="0.378" y2="5.3" xlink:href="#linear-gradient-5"/>
    <linearGradient id="linear-gradient-62" x1="0.566" y1="-0.496" x2="0.189" y2="5.13" xlink:href="#linear-gradient-5"/>
    <linearGradient id="linear-gradient-63" x1="0.329" y1="0.554" x2="-0.255" y2="0.738" gradientUnits="objectBoundingBox">
      <stop offset="0" stop-color="#fcb148"/>
      <stop offset="0.052" stop-color="#fdb946"/>
      <stop offset="0.142" stop-color="#fec144"/>
      <stop offset="0.318" stop-color="#ffc444"/>
      <stop offset="0.485" stop-color="#fdb946"/>
      <stop offset="0.775" stop-color="#f99c4c"/>
      <stop offset="0.866" stop-color="#f8924f"/>
      <stop offset="1" stop-color="#f8924f"/>
    </linearGradient>
    <linearGradient id="linear-gradient-64" x1="0.727" y1="0.007" x2="0.207" y2="1.135" gradientUnits="objectBoundingBox">
      <stop offset="0" stop-color="#ffdb44"/>
      <stop offset="1" stop-color="#feef06"/>
    </linearGradient>
    <linearGradient id="linear-gradient-65" x1="0.636" y1="1.231" x2="0.531" y2="0.666" xlink:href="#linear-gradient-63"/>
    <linearGradient id="linear-gradient-66" x1="0.409" y1="0.31" x2="0.858" y2="1.247" xlink:href="#linear-gradient-63"/>
    <linearGradient id="linear-gradient-67" x1="0.253" y1="0.019" x2="0.711" y2="1.039" xlink:href="#linear-gradient-64"/>
    <linearGradient id="linear-gradient-68" x1="0.464" y1="0.369" x2="1.215" y2="1.306" xlink:href="#linear-gradient-63"/>
    <linearGradient id="linear-gradient-69" x1="1.074" y1="-2.4" x2="1.254" y2="2.637" xlink:href="#linear-gradient-18"/>
    <linearGradient id="linear-gradient-70" x1="5.643" y1="1.15" x2="5.521" y2="-5.067" gradientUnits="objectBoundingBox">
      <stop offset="0" stop-color="#ffc444"/>
      <stop offset="0.996" stop-color="#f36f56"/>
    </linearGradient>
    <linearGradient id="linear-gradient-71" x1="12.216" y1="-1.473" x2="12.501" y2="1.479" xlink:href="#linear-gradient-18"/>
    <linearGradient id="linear-gradient-72" x1="20.569" y1="1.365" x2="20.483" y2="-3.017" xlink:href="#linear-gradient-70"/>
    <linearGradient id="linear-gradient-73" x1="1.138" y1="0.5" x2="2.14" y2="0.5" xlink:href="#linear-gradient-25"/>
    <linearGradient id="linear-gradient-74" x1="1.221" y1="0.5" x2="2.295" y2="0.5" xlink:href="#linear-gradient-25"/>
    <linearGradient id="linear-gradient-75" x1="1.342" y1="0.501" x2="2.339" y2="0.501" xlink:href="#linear-gradient-25"/>
    <linearGradient id="linear-gradient-76" x1="0.5" y1="2.459" x2="0.5" y2="0.316" xlink:href="#linear-gradient-63"/>
    <linearGradient id="linear-gradient-77" x1="-0.193" y1="1.099" x2="-0.449" y2="4.328" xlink:href="#linear-gradient-70"/>
    <linearGradient id="linear-gradient-78" x1="17.65" y1="8.598" x2="16.9" y2="6.924" xlink:href="#linear-gradient-25"/>
    <linearGradient id="linear-gradient-79" x1="-1.999" y1="-0.008" x2="-1.501" y2="4.489" xlink:href="#linear-gradient-70"/>
    <linearGradient id="linear-gradient-80" x1="0" y1="0.5" x2="1" y2="0.5" xlink:href="#linear-gradient-70"/>
    <linearGradient id="linear-gradient-81" x1="0.5" y1="2.953" x2="0.5" y2="0.326" xlink:href="#linear-gradient-63"/>
    <linearGradient id="linear-gradient-82" x1="-0.113" y1="0.5" x2="0.887" y2="0.5" xlink:href="#linear-gradient-70"/>
    <linearGradient id="linear-gradient-84" x1="-2.451" y1="0.93" x2="-1.451" y2="0.93" xlink:href="#linear-gradient-5"/>
    <linearGradient id="linear-gradient-85" x1="-6.826" y1="1.47" x2="-7.329" y2="0.927" xlink:href="#linear-gradient-5"/>
    <linearGradient id="linear-gradient-86" x1="-8.052" y1="0.687" x2="-7.329" y2="1.455" xlink:href="#linear-gradient-5"/>
    <linearGradient id="linear-gradient-87" x1="0.154" y1="-0.904" x2="2.181" y2="8.313" xlink:href="#linear-gradient-70"/>
    <linearGradient id="linear-gradient-88" x1="-46.683" y1="48.433" x2="-49.989" y2="56.614" xlink:href="#linear-gradient-70"/>
  </defs>
  <g id="Group_195" data-name="Group 195" transform="translate(-499.527 -383.393)">
    <path id="Path_6" data-name="Path 6" d="M836.994,392.095c-60.549,1.028-154.229,23.157-181.194,80.025-9.418,19.862-8.78,49.061-7.505,107.459.375,17.165,1,42.183,5.361,73.224,9.067,64.483,15.238,108.381,38.6,133.942,58.531,64.048,269.959,62.2,360.244-53.11,49.251-62.9,56.828-152.38,11.794-226.33C1014.709,425.888,918.055,390.718,836.994,392.095Z" transform="translate(-121.966 -7.137)" fill="#f4f7fa"/>
    <g id="Group_156" data-name="Group 156" transform="translate(507.861 383.393)">
      <g id="Group_155" data-name="Group 155" transform="translate(0)">
        <g id="Group_154" data-name="Group 154">
          <g id="Group_149" data-name="Group 149" transform="translate(24.223)">
            <path id="Path_7" data-name="Path 7" d="M811.763,609.438c1.2,6.939,1.408,12.778,2.265,19.612,25.16-15.72,52.3-26.261,77.835-42.152-32.981-20.393-56.043-24.671-66.545-68.388-4.928-20.516-8.63-62.395-25.326-75.911-19.021-15.4-30.485-2.6-36.4-22.464-9.24-31.042-38.678-53.14-70.211-20.944C662.263,430.969,718.857,531.6,755.191,547.68,783.367,567.555,805.5,573.205,811.763,609.438Z" transform="translate(-684.366 -383.393)" fill="url(#linear-gradient)"/>
            <g id="Group_148" data-name="Group 148" transform="translate(0 0.019)">
              <g id="Group_147" data-name="Group 147" clip-path="url(#clip-path)">
                <g id="Group_146" data-name="Group 146" transform="translate(-9.583 -11.783)">
                  <path id="Path_8" data-name="Path 8" d="M807.8,549.138c-7.071-8.356-14.883-16.257-22.439-23.9l-2.861-2.9c-6.066-6.149-11.382-11.757-16.072-16.7-2.638-2.783-5.13-5.413-7.566-7.941-7.446-7.728-12.672-13.124-15.273-15.808-.878-.907-1.457-1.5-1.722-1.779-20.416-21.2-40.362-57.533-51.077-77.05-1.162-2.116-2.2-4.007-3.1-5.626a450.581,450.581,0,0,0-57.747-80.467l.4-.357a451.151,451.151,0,0,1,57.815,80.564c.9,1.62,1.941,3.512,3.1,5.629,10.7,19.5,30.626,55.784,50.993,76.936.264.274.842.872,1.72,1.777,2.6,2.685,7.828,8.081,15.274,15.809,2.438,2.531,4.931,5.16,7.57,7.944,4.688,4.947,10,10.553,16.064,16.7l2.86,2.9c7.563,7.648,15.383,15.556,22.467,23.928Z" transform="translate(-629.941 -316.611)" fill="#fcfdfe"/>
                  <path id="Path_9" data-name="Path 9" d="M1285.32,779.31c-12.823-14.652-21.984-37.031-26.49-64.718a245.014,245.014,0,0,1-.837-71.366l.53.076a244.473,244.473,0,0,0,.836,71.2c4.491,27.588,13.607,49.875,26.365,64.451Z" transform="translate(-1145.526 -585.688)" fill="#fcfdfe"/>
                  <path id="Path_10" data-name="Path 10" d="M922.645,433.115c-4.168-16.315-6.3-33.253-8.358-49.634-1.41-11.212-2.868-22.807-4.967-34.108l.527-.1c2.1,11.317,3.561,22.919,4.972,34.14,2.057,16.364,4.185,33.286,8.345,49.568Z" transform="translate(-860.103 -343.521)" fill="#fcfdfe"/>
                  <path id="Path_11" data-name="Path 11" d="M832.734,974.212c-18.272-14.66-49.389-26-66.586-24.275l-.053-.533c17.313-1.746,48.611,9.656,66.974,24.39Z" transform="translate(-742.109 -837.782)" fill="#fcfdfe"/>
                </g>
              </g>
            </g>
          </g>
          <g id="Group_153" data-name="Group 153" transform="translate(0 102.858)">
            <path id="Path_13" data-name="Path 13" d="M645.37,1024.622c20.6,29.682,36.356,14.6,57.314-3.778,9,32.423,18.961,63.661,29.178,95.328-14.209,12.091-24.612,20.487-41.845,5.787-19.491-16.626-30.187-26.866-57.809-21.125s-54.9-4.627-56.958-32.758c-2.167-29.6-38.874-53.533-25.379-81.586C573.384,937.609,623.92,993.714,645.37,1024.622Z" transform="translate(-546.887 -967.263)" fill="url(#linear-gradient-2)"/>
            <g id="Group_152" data-name="Group 152" transform="translate(0 0.104)">
              <g id="Group_151" data-name="Group 151" clip-path="url(#clip-path-2)">
                <g id="Group_150" data-name="Group 150" transform="translate(4.423 -19.153)">
                  <path id="Path_14" data-name="Path 14" d="M733.49,1099.758c-30.427-1.388-55.741-3.391-81.408-15.227-24.564-11.327-41.251-27.737-55.8-54.869-7.54-14.064-14.534-23.291-24.344-35.763l.421-.331c9.827,12.494,16.835,21.739,24.395,35.842,14.487,27.021,31.1,43.361,55.549,54.636,25.579,11.795,50.841,13.792,81.208,15.178Z" transform="translate(-571.941 -969.885)" fill="#fcfdfe"/>
                  <path id="Path_15" data-name="Path 15" d="M1404.182,1730.212l-.515-.148a96.8,96.8,0,0,1,11.556-25.972,62.525,62.525,0,0,1,9.274-10.929l.376.382a62.05,62.05,0,0,0-9.2,10.836A96.272,96.272,0,0,0,1404.182,1730.212Z" transform="translate(-1257.146 -1546.236)" fill="#fcfdfe"/>
                  <path id="Path_16" data-name="Path 16" d="M723.7,1564.937l-.311-.436c21.727-15.53,46.418-23.478,69.526-22.381l-.025.535C769.9,1541.562,745.327,1549.477,723.7,1564.937Z" transform="translate(-696.707 -1421.72)" fill="#fcfdfe"/>
                  <path id="Path_17" data-name="Path 17" d="M715.634,946.509c-1.358-2.351-6.975-24.441-11.778-44.33-4.822-19.97-9.751-41.531-9.653-43.045l.535.034c-.084,1.289,4.24,20.527,9.638,42.885,4.794,19.853,10.391,41.887,11.721,44.189Z" transform="translate(-672.664 -859.134)" fill="#fcfdfe"/>
                </g>
              </g>
            </g>
          </g>
        </g>
      </g>
    </g>
    <g id="Group_161" data-name="Group 161" transform="translate(833.053 536.276)">
      <g id="Group_160" data-name="Group 160">
        <path id="Path_19" data-name="Path 19" d="M2466.042,1510.566c-2.894-.233-8.983-3.291-10.243-4.742-8.377-9.66-25.237-26.728-25.093-40.244.024-2.308,10.208-4.942,11.548-7.124,6.086-3.255,8.4-4.007,12.664-9.943,12.593-17.526-19.513-47.745,15.525-60.6,25.664-9.418,48.106-1.5,43.351-41.82s23.766-115.58,67.844-89.423c25.3,15.012,2.07,50.613,15.908,75.378,13.15,23.533,3.887,43.877-21.029,59.583s-10.7,26.17-2.147,48.725c10.271,27.093-31.834,34.013-51.546,35.55C2506.95,1477.139,2467.366,1491,2466.042,1510.566Z" transform="translate(-2424.025 -1251.262)" fill="url(#linear-gradient-3)"/>
        <g id="Group_159" data-name="Group 159">
          <g id="Group_158" data-name="Group 158" clip-path="url(#clip-path-3)">
            <g id="Group_157" data-name="Group 157" transform="translate(19.344 -6.356)">
              <path id="Path_20" data-name="Path 20" d="M2502.893,1457.1l-.3-.551c41.888-22.975,75.609-58.162,97.515-101.757,20.844-41.48,30.787-89.757,28.753-139.611l.628-.026c2.038,49.96-7.927,98.343-28.82,139.919C2578.7,1398.782,2544.894,1434.062,2502.893,1457.1Z" transform="translate(-2502.591 -1215.154)" fill="#fcfdfe"/>
              <path id="Path_21" data-name="Path 21" d="M2754.28,2367.1l-.209-.593c25.786-9.12,67.248-10.9,92.425-3.962l-.167.606C2821.256,2356.248,2779.963,2358.019,2754.28,2367.1Z" transform="translate(-2709.769 -2156.932)" fill="#fcfdfe"/>
              <path id="Path_22" data-name="Path 22" d="M2594.555,2109.228l-.443-.446c10.042-9.983,14.65-24.659,13.7-43.621-.7-13.9-4.314-29.745-10.749-47.086l.589-.219c6.457,17.4,10.086,33.306,10.788,47.273C2609.4,2084.276,2604.728,2099.113,2594.555,2109.228Z" transform="translate(-2577.989 -1876.448)" fill="#fcfdfe"/>
              <path id="Path_23" data-name="Path 23" d="M3072.671,1842.108l-.465-.422c17.963-19.8,45.337-26.179,65.137-28.049l.059.626C3117.713,1816.122,3090.5,1822.462,3072.671,1842.108Z" transform="translate(-2971.861 -1708.205)" fill="#fcfdfe"/>
              <path id="Path_24" data-name="Path 24" d="M3048.88,1325.213l-.628-.015c.312-12.92-3.031-38.971-28.921-68.281l.471-.416C3045.834,1285.971,3049.195,1312.2,3048.88,1325.213Z" transform="translate(-2928.3 -1249.217)" fill="#fcfdfe"/>
            </g>
          </g>
        </g>
      </g>
    </g>
    <g id="Group_165" data-name="Group 165" transform="translate(869.602 411.436)">
      <g id="Group_164" data-name="Group 164" transform="translate(0 0)">
        <g id="Group_163" data-name="Group 163" clip-path="url(#clip-path-4)">
          <path id="Path_26" data-name="Path 26" d="M2658.059,851.264q-20.746.58-41.6.222c-.184.236-9.754-28.293,1.466-46.109,22.295-34.611-.943-58.075-9.015-72.979-12.3-20.838-12.139-45.773,10.507-50.121,25.029-5.315,22.27-47.8,11.04-84.923-6.779-17.873,6.727-43.379,23.238-51.567,16.778-8.806,36.561-.294,48.476,35.614,15.731,41.235-10.894,72.448-18.668,95.874-7.657,23,21.731,35.358,3.752,57.705-14.967,19.68-35.406,35.528-23.514,54.854C2675.813,808.886,2676.737,826.034,2658.059,851.264Z" transform="translate(-2600.658 -542.579)" fill="url(#linear-gradient)"/>
          <g id="Group_162" data-name="Group 162" transform="translate(-2.649 -6.443)">
            <path id="Path_27" data-name="Path 27" d="M2822.155,826.137c-.05-.26,2-64.183,13.669-128.1,1.36-10.254,2.971-20.638,4.529-30.681,4.172-26.891,8.485-54.7,8.132-81.566-.4-30.03-6.7-56.031-19.289-79.487l.553-.3c12.634,23.547,18.968,49.642,19.364,79.775.354,26.921-3.964,54.754-8.139,81.671-1.557,10.04-3.168,20.421-4.529,30.683-11.676,63.941-13.7,127.534-13.67,127.905Z" transform="translate(-2780.414 -506.006)" fill="#fcfdfe"/>
            <path id="Path_28" data-name="Path 28" d="M2965.929,787.539l-.533-.333c12.094-19.339,26.057-46.257,33.559-60.718,6.045-11.653,6.091-11.654,6.448-11.661l.012.629-.006-.314.18.25c-.356.36-2.88,5.226-6.076,11.386C2992.008,741.247,2978.036,768.179,2965.929,787.539Z" transform="translate(-2898.422 -678.04)" fill="#fcfdfe"/>
            <path id="Path_29" data-name="Path 29" d="M2785.512,779.581c-6.464-18.566-16.54-29.76-23.853-35.881-7.993-6.69-14.8-9.125-15.511-9.125h-.009l-.009-.233-.28-.293c.146-.139.363-.12.713-.036,5.476,1.318,28.233,12.879,39.542,45.362Z" transform="translate(-2717.552 -693.793)" fill="#fcfdfe"/>
            <path id="Path_30" data-name="Path 30" d="M2634.295,1444.517c-1.01-18.173-8.523-36.591-22.332-54.744a168.214,168.214,0,0,0-25.693-26.739c-.715-.6-.967-.814-1.054-.917l.481-.405c.064.074.488.429.978.841a168.768,168.768,0,0,1,25.788,26.839c13.887,18.254,21.444,36.79,22.46,55.09Z" transform="translate(-2585.215 -1210.967)" fill="#fcfdfe"/>
            <path id="Path_31" data-name="Path 31" d="M2880.416,1546.227l-.584-.233c11.566-28.934,45.268-36.746,45.681-36.746h0l.282.25-.159.341-.148-.273.028.308a73.863,73.863,0,0,0-18.578,7.552C2898.091,1522.431,2886.307,1531.49,2880.416,1546.227Zm44.921-36.94.15.275Z" transform="translate(-2827.931 -1332.512)" fill="#fcfdfe"/>
            <path id="Path_32" data-name="Path 32" d="M2706.528,2085.72c-1.077-7.8-6.167-20.516-24.308-36.834-1-.9-1-.9-1-1.07l.315-.01.261-.169c.058.072.424.4.847.781,18.281,16.447,23.418,29.317,24.51,37.217Z" transform="translate(-2664.306 -1776.055)" fill="#fcfdfe"/>
            <path id="Path_33" data-name="Path 33" d="M2830.365,2012.891l-.625-.068c.673-6.2,5.371-18.95,29.272-34.628.33-.216.542-.354.616-.411l.38.5c-.078.06-.3.208-.652.437C2835.672,1994.257,2831.026,2006.8,2830.365,2012.891Z" transform="translate(-2786.663 -1718.508)" fill="#fcfdfe"/>
          </g>
        </g>
      </g>
    </g>
    <g id="Group_170" data-name="Group 170" transform="translate(569.328 386.521)">
      <path id="Path_35" data-name="Path 35" d="M1234.285,652.367,909.949,633.6c-7.47-.365-14.194,7.787-14.194,14.632v417.642c0,9.492,9.7,11.4,17.166,10.64l321.364-32.82a12.2,12.2,0,0,0,10.609-12V663.8A11.418,11.418,0,0,0,1234.285,652.367Z" transform="translate(-895.755 -592.644)" fill="url(#linear-gradient-5)"/>
      <path id="Path_36" data-name="Path 36" d="M1264.565,646.489,939.589,630.5c-7.47-.367-13.554,4.925-13.554,11.824v420.9c0,6.9,6.084,11.864,13.554,11.1l324.976-33.448a12.259,12.259,0,0,0,10.61-12.095V658.013A11.471,11.471,0,0,0,1264.565,646.489Z" transform="translate(-920.701 -590.083)" fill="#d8dee8"/>
      <path id="Path_37" data-name="Path 37" d="M968.763,1095.353c-4.029.407-7.316-2.285-7.316-6V669.341c0-3.717,3.286-6.586,7.316-6.4L1293.739,678.3a6.211,6.211,0,0,1,5.749,6.234V1056a6.637,6.637,0,0,1-5.749,6.543Z" transform="translate(-949.874 -616.818)" fill="url(#linear-gradient-6)"/>
      <path id="Path_38" data-name="Path 38" d="M1428.954,1187.863,1151,1214.644V827.15l277.954,10.468Z" transform="translate(-1106.035 -752.103)" fill="#fff"/>
      <path id="Path_39" data-name="Path 39" d="M1578.24,704.23l-111.085,1.39,2.491-25.052a6.79,6.79,0,0,1,5.64-6.4l18.813-2.891a6.767,6.767,0,0,0,5.09-3.906l2.04-4.43,49.207,3.038Z" transform="translate(-1366.494 -616.819)" fill="#97a6b7" opacity="0.3" style="mix-blend-mode: multiply;isolation: isolate"/>
      <path id="Path_40" data-name="Path 40" d="M1637.56,472.307a5.944,5.944,0,0,0-5.659-4.952l-17.75-.8c-8.056-.361-13.963-6.906-13.667-15.2l.685-19.211a6.234,6.234,0,0,0-5.9-6.608l-5.832-.348c-4.447-.266-7.408-4.186-6.784-8.719a13.171,13.171,0,0,0-12.2-15.295,15.983,15.983,0,0,0-16.508,13.54,8.927,8.927,0,0,1-1.233,3.422,9.129,9.129,0,0,1-8.186,4.369l-6.016-.359a7.976,7.976,0,0,0-8.032,5.94l-5,19.5a19.1,19.1,0,0,1-18.988,14.14l-19.471-.873a8.458,8.458,0,0,0-7.787,4.63l-11.734,23.282a2.694,2.694,0,0,0,2.317,4.036l168.857,5.609a3.136,3.136,0,0,0,3.076-3.613Zm-69.5-54.5a3.865,3.865,0,0,1-3.6-4.516,4.682,4.682,0,0,1,4.825-3.98,3.865,3.865,0,0,1,3.589,4.515A4.684,4.684,0,0,1,1568.057,417.81Z" transform="translate(-1366.494 -401.149)" fill="url(#linear-gradient-5)"/>
      <path id="Path_41" data-name="Path 41" d="M1643.238,475.264a5.945,5.945,0,0,0-5.659-4.952l-17.75-.8c-8.056-.361-13.962-6.906-13.667-15.2l.685-19.211a6.234,6.234,0,0,0-5.9-6.608l-5.832-.348c-4.447-.266-7.408-4.186-6.784-8.719a13.171,13.171,0,0,0-12.2-15.295,15.984,15.984,0,0,0-16.508,13.54,8.923,8.923,0,0,1-1.233,3.422,9.129,9.129,0,0,1-8.186,4.369l-6.016-.359a7.976,7.976,0,0,0-8.032,5.94l-5,19.5a19.1,19.1,0,0,1-18.988,14.14l-19.472-.873a8.459,8.459,0,0,0-7.787,4.63l-11.733,23.282a2.693,2.693,0,0,0,2.317,4.036l168.857,5.609a3.136,3.136,0,0,0,3.076-3.613Zm-69.5-54.5a3.865,3.865,0,0,1-3.6-4.516,4.682,4.682,0,0,1,4.825-3.98,3.865,3.865,0,0,1,3.588,4.515A4.683,4.683,0,0,1,1573.735,420.766Z" transform="translate(-1371.171 -403.584)" fill="#97a6b7"/>
      <g id="Group_166" data-name="Group 166" transform="translate(101.661 30.703)">
        <path id="Path_42" data-name="Path 42" d="M1614.34,627.11c-15.062-9.3-26.62-2.705-36.007-13.193-10.049-11.227-3.271-26.006-13.669-32.981-6.657-4.465-12.595-.527-20.337-1.736a21.348,21.348,0,0,1-9-3.766l-4.172,16.263a19.1,19.1,0,0,1-18.988,14.14l-19.472-.873a8.459,8.459,0,0,0-7.787,4.63l-11.733,23.282a2.693,2.693,0,0,0,2.317,4.036l153.457,5.1A45.781,45.781,0,0,0,1614.34,627.11Z" transform="translate(-1472.832 -575.435)" fill="#fff" opacity="0.5" style="mix-blend-mode: soft-light;isolation: isolate"/>
      </g>
      <g id="Group_169" data-name="Group 169" transform="translate(76.35 122.283)">
        <path id="Path_43" data-name="Path 43" d="M1797.307,1108.906l-104-1.141v-12.478l104,1.6Z" transform="translate(-1629.156 -1095.287)" fill="#97a6b7"/>
        <g id="Group_168" data-name="Group 168" transform="translate(0 35.791)">
          <g id="Group_167" data-name="Group 167" transform="translate(50.588 0.612)">
            <path id="Path_44" data-name="Path 44" d="M1629.058,1413.771l-12.739.473V1301.926l12.739.032Z" transform="translate(-1616.318 -1301.926)" fill="url(#linear-gradient-8)"/>
            <path id="Path_45" data-name="Path 45" d="M1768.061,1575.43l-12.52.465v-76.522l12.52-.124Z" transform="translate(-1731.015 -1464.487)" fill="url(#linear-gradient-8)"/>
            <path id="Path_46" data-name="Path 46" d="M1904.682,1480.372l-12.307.457v-95.855l12.307-.034Z" transform="translate(-1843.744 -1370.316)" fill="url(#linear-gradient-8)"/>
            <path id="Path_47" data-name="Path 47" d="M2038.982,1569.379l-12.1.449v-75.671l12.1-.118Z" transform="translate(-1954.556 -1460.195)" fill="url(#linear-gradient-8)"/>
            <path id="Path_48" data-name="Path 48" d="M2171.019,1663.13l-11.9.442v-54.489l11.9-.205Z" transform="translate(-2063.5 -1554.804)" fill="url(#linear-gradient-8)"/>
            <path id="Path_49" data-name="Path 49" d="M2300.851,1410.784l-11.7.435V1303.6l11.7.029Z" transform="translate(-2170.622 -1303.301)" fill="#d8dee8"/>
            <path id="Path_50" data-name="Path 50" d="M2428.53,1758.044l-11.506.427v-32.063l11.506-.29Z" transform="translate(-2275.968 -1651.39)" fill="#d8dee8"/>
            <path id="Path_51" data-name="Path 51" d="M2554.112,1507.158l-11.317.42v-84.944l11.317-.061Z" transform="translate(-2379.582 -1401.319)" fill="#d8dee8"/>
          </g>
          <path id="Path_52" data-name="Path 52" d="M1567.21,2111.369l-222.353,12.072v-11.729l222.353-11.167Z" transform="translate(-1342.092 -1959.244)" fill="#d8dee8"/>
          <path id="Path_53" data-name="Path 53" d="M1567.21,1993.815l-222.353,10.342v-11.73l222.353-9.437Z" transform="translate(-1342.092 -1862.398)" fill="#d8dee8"/>
          <path id="Path_54" data-name="Path 54" d="M1567.21,2586.927,1344.858,2606v-11.73L1567.21,2576.1Z" transform="translate(-1342.092 -2351.025)" fill="#d8dee8"/>
          <path id="Path_55" data-name="Path 55" d="M1417.189,2295.076v44.541l-88.03,6.684v-45.942Z" transform="translate(-1329.158 -2119.506)" fill="#d8dee8" opacity="0.5"/>
          <path id="Path_56" data-name="Path 56" d="M1329.158,2367.865v19.122l88.03-6.684v-34.515c-5.031-1.6-11.081-2.276-15.7,1.033-9.679,6.943-8.445,10.521-18.541,9.365-7.9-.909-16.7-1.652-23.484,4.09-4.2,3.559-6.367,7.22-12.428,7.108C1341.332,2367.28,1334.684,2363.727,1329.158,2367.865Z" transform="translate(-1329.158 -2160.192)" fill="#d8dee8"/>
          <path id="Path_57" data-name="Path 57" d="M2062.576,2256.377l-116.426,7.337v-8.351l116.426-6.987Z" transform="translate(-1837.457 -2081.033)" fill="#d8dee8"/>
          <path id="Path_58" data-name="Path 58" d="M2062.576,2354.759l-116.426,8.078v-7.86l116.426-7.749Z" transform="translate(-1837.457 -2162.471)" fill="#d8dee8"/>
          <path id="Path_59" data-name="Path 59" d="M2062.576,2451.41l-116.426,8.84V2451.9l116.426-8.49Z" transform="translate(-1837.457 -2241.707)" fill="#d8dee8"/>
          <path id="Path_60" data-name="Path 60" d="M1369.3,1309.1l-27.653.025v-10.675l27.653.077Z" transform="translate(-1339.445 -1298.454)" fill="#d8dee8"/>
          <path id="Path_61" data-name="Path 61" d="M1369.3,1457.742l-27.653.278v-10.675l27.653-.176Z" transform="translate(-1339.445 -1420.971)" fill="#d8dee8"/>
          <path id="Path_62" data-name="Path 62" d="M1369.3,1602.488l-27.653.525v-10.676l27.653-.423Z" transform="translate(-1339.445 -1540.218)" fill="#d8dee8"/>
          <path id="Path_63" data-name="Path 63" d="M1369.3,1750.764l-27.653.779v-10.675l27.653-.676Z" transform="translate(-1339.445 -1662.373)" fill="#d8dee8"/>
          <path id="Path_64" data-name="Path 64" d="M1369.3,1895.51l-27.653,1.026V1885.86l27.653-.923Z" transform="translate(-1339.445 -1781.619)" fill="#d8dee8"/>
        </g>
      </g>
    </g>
    <g id="Group_187" data-name="Group 187" transform="translate(828.878 669.154)">
      <path id="Path_65" data-name="Path 65" d="M2517.178,2020.149l-.472,159.94a16.278,16.278,0,0,1-14.312,15.789l-116.928,11.97c-9.006.922-16.376-5.3-16.376-13.743V2021.951c0-7.99,6.539-14.584,14.836-15.383.53-.051,1.068-.069,1.61-.071l117.363-.559A14.121,14.121,0,0,1,2517.178,2020.149Z" transform="translate(-2369.09 -2005.863)" fill="url(#linear-gradient-13)"/>
      <path id="Path_66" data-name="Path 66" d="M2568.663,2019.683l-.49,159.445c-.024,7.817-6,14.893-13.892,15.7l-116.128,11.888c-8.944.916-16.632-5.254-16.63-13.664l.024-171.581c0-7.964,6.677-14.536,14.919-15.332.526-.051,1.244-.069,1.782-.072l116.563-.556A13.777,13.777,0,0,1,2568.663,2019.683Z" transform="translate(-2412.285 -2005.513)" fill="url(#linear-gradient-14)"/>
      <g id="Group_171" data-name="Group 171" transform="translate(9.254 0)" opacity="0.3" style="mix-blend-mode: multiply;isolation: isolate">
        <path id="Path_67" data-name="Path 67" d="M2568.747,2019.457l-.123,40.073-147,4.83.006-43.131c0-7.774,6.374-14.1,14.337-15.141a20.213,20.213,0,0,1,2.364-.019l116.563-.556A13.587,13.587,0,0,1,2568.747,2019.457Z" transform="translate(-2421.623 -2005.513)" fill="url(#linear-gradient)"/>
        <path id="Path_68" data-name="Path 68" d="M2568.658,2218.3l-.051,16.651c-14.262,4.511-40.51,8.16-70.626,9.32-13.3.513-26.161.5-37.782.014-15.476-.642-28.543-2.1-38.579-4.173l0-17.921c3.776-.929,7.246-1.791,11.364-2.6,8.951-1.768,19.727-3.256,31.5-4.352,10.521-.982,21.939-1.646,33.715-1.917,15.154-.35,29.225-.007,41.319.879.941.067,1.88.141,2.8.215,2.892.237,5.67.506,8.311.807q1.4.157,2.756.329c2.071.261,3.85.544,5.735.842C2562.732,2216.957,2565.936,2217.595,2568.658,2218.3Z" transform="translate(-2421.619 -2176.595)" fill="url(#linear-gradient)"/>
      </g>
      <path id="Path_69" data-name="Path 69" d="M2608.5,2117.882a4.5,4.5,0,0,1-4.339,4.446l-120.645,3.691a4.59,4.59,0,0,1-4.9-4.453l.01-28.813a4.841,4.841,0,0,1,4.909-4.67l120.73-1.467a4.244,4.244,0,0,1,4.316,4.266Z" transform="translate(-2459.323 -2072.328)" fill="#fff"/>
      <path id="Path_70" data-name="Path 70" d="M2611.6,2122.568a2.842,2.842,0,0,1-2.745,2.809l-120.054,3.536a2.9,2.9,0,0,1-3.1-2.814l.011-28.681a3.057,3.057,0,0,1,3.1-2.949l120.131-1.528a2.684,2.684,0,0,1,2.731,2.7Z" transform="translate(-2465.159 -2077.539)" fill="url(#linear-gradient-17)"/>
      <g id="Group_177" data-name="Group 177" transform="translate(127.012 18.796)">
        <g id="Group_174" data-name="Group 174" transform="translate(0 3.233)">
          <g id="Group_172" data-name="Group 172" transform="translate(0.03)">
            <path id="Path_71" data-name="Path 71" d="M3093.047,2138.468a1.289,1.289,0,0,1-1.372,1.25h-.063a1.226,1.226,0,0,1-1.367-1.2l.014-5.558a1.352,1.352,0,0,1,1.374-1.327h.063a1.289,1.289,0,0,1,1.365,1.281Z" transform="translate(-3090.245 -2131.448)" fill="url(#linear-gradient-18)"/>
            <path id="Path_72" data-name="Path 72" d="M3156.348,2137.386a1.3,1.3,0,0,1-1.356,1.265h-.062a1.23,1.23,0,0,1-1.351-1.212l.015-5.542a1.354,1.354,0,0,1,1.359-1.335h.062a1.291,1.291,0,0,1,1.349,1.29Z" transform="translate(-3142.421 -2130.562)" fill="url(#linear-gradient-19)"/>
          </g>
          <g id="Group_173" data-name="Group 173" transform="translate(0 11.556)">
            <path id="Path_73" data-name="Path 73" d="M3092.874,2207.584a1.518,1.518,0,0,1-1.372,1.513h-.063a1.426,1.426,0,0,1-1.366-1.441l.014-5.718a1.5,1.5,0,0,1,1.373-1.5h.063a1.42,1.42,0,0,1,1.364,1.435Z" transform="translate(-3090.073 -2199.685)" fill="url(#linear-gradient-20)"/>
            <path id="Path_74" data-name="Path 74" d="M3156.161,2203.833c0,.743-.609.98-1.356,1.569h-.062a1.476,1.476,0,0,1-1.35-1.5l.016-5.971c0-.744.609-1.763,1.357-1.775h.063c.747-.012,1.351.969,1.349,1.712Z" transform="translate(-3142.237 -2196.158)" fill="url(#linear-gradient-21)"/>
          </g>
        </g>
        <g id="Group_176" data-name="Group 176" transform="translate(3.082)">
          <path id="Path_75" data-name="Path 75" d="M3118.675,2179.374a1.427,1.427,0,0,1-1.4,1.381l-5.208.123c-.754.016-.938-.575-.938-1.323v-.062c0-.747.172-1.363.927-1.378l5.448-.118a1.168,1.168,0,0,1,1.167,1.316Z" transform="translate(-3110.505 -2166.406)" opacity="0.3" fill="url(#linear-gradient-22)"/>
          <g id="Group_175" data-name="Group 175">
            <path id="Path_76" data-name="Path 76" d="M3118.675,2113.6a1.4,1.4,0,0,1-1.38,1.374l-5.216.089c-.754.012-.945-.585-.945-1.333v-.063c0-.747.187-1.359.941-1.371l5.441-.084a1.172,1.172,0,0,1,1.159,1.326Z" transform="translate(-3110.505 -2112.209)" fill="url(#linear-gradient-23)"/>
            <path id="Path_77" data-name="Path 77" d="M3115.736,2248.246a1.452,1.452,0,0,1-1.411,1.389l-5.515.156a1.217,1.217,0,0,1-1.244-1.315v-.063a1.285,1.285,0,0,1,1.225-1.385l5.612-.153a1.287,1.287,0,0,1,1.333,1.308Z" transform="translate(-3107.566 -2223.152)" fill="url(#linear-gradient-24)"/>
          </g>
        </g>
      </g>
      <path id="Path_78" data-name="Path 78" d="M2506.9,2191.416a32.556,32.556,0,0,1-2.443,7.919c-.42.907-.895,1.854-1.415,2.82l-64.888,6.643c-8.944.915-16.632-5.254-16.63-13.665l.024-171.824c0-7.774,6.374-14.231,14.336-15.271.193.054.48.114.677.174,8.375,2.533,17.5,7.258,22.946,16.1,3.4,5.516,5.425,12.655,4.973,21.917a62.582,62.582,0,0,1-.849,7.628q-.405,2.348-.814,4.795-.515,3.055-1.01,6.236c-.523,3.391-1.005,6.869-1.393,10.383-.37,3.368-.652,6.772-.794,10.166-.026.655-.048,1.313-.064,1.967q-.082,3.183.03,6.328.077,2.151.26,4.268c.692,7.939,2.56,15.493,6.3,22.044,2.829,4.948,7.084,8.713,11.552,12.189,1.178.915,2.37,1.812,3.555,2.705a95.183,95.183,0,0,1,11.379,9.816c.084.088.17.177.252.265a54.867,54.867,0,0,1,4.665,5.57,40.865,40.865,0,0,1,4.049,6.934c.432.93.83,1.879,1.2,2.839.637,1.648,1.184,3.341,1.662,5.07.215.775.425,1.562.625,2.36a.558.558,0,0,1,.023.093,81.589,81.589,0,0,1,1.934,9.823A45.484,45.484,0,0,1,2506.9,2191.416Z" transform="translate(-2412.285 -2007.593)" fill="#fff" opacity="0.3" style="mix-blend-mode: soft-light;isolation: isolate"/>
      <g id="Group_186" data-name="Group 186" transform="translate(19.248 72.962)">
        <g id="Group_181" data-name="Group 181" transform="translate(0 0.047)" style="mix-blend-mode: multiply;isolation: isolate">
          <g id="Group_178" data-name="Group 178" transform="translate(0.033)">
            <path id="Path_79" data-name="Path 79" d="M2506.845,2455a3.342,3.342,0,0,1-3.229,3.215l-21.772,1.073a3.024,3.024,0,0,1-3.3-2.935l0-7.814a3.381,3.381,0,0,1,3.308-3.24l21.778-.926a2.985,2.985,0,0,1,3.224,2.92Z" transform="translate(-2478.539 -2440.069)" fill="url(#linear-gradient-25)"/>
            <path id="Path_80" data-name="Path 80" d="M2711.156,2446.307a3.255,3.255,0,0,1-3.12,3.156l-21.02,1.036a2.939,2.939,0,0,1-3.188-2.887l.008-7.678a3.292,3.292,0,0,1,3.2-3.181l21.026-.893a2.9,2.9,0,0,1,3.112,2.872Z" transform="translate(-2647.663 -2433.055)" fill="url(#linear-gradient-26)"/>
            <path id="Path_81" data-name="Path 81" d="M2901.865,2438.187a3.176,3.176,0,0,1-3.02,3.1l-20.33,1a2.862,2.862,0,0,1-3.081-2.841l.013-7.55a3.21,3.21,0,0,1,3.091-3.125l20.335-.865a2.829,2.829,0,0,1,3.008,2.827Z" transform="translate(-2805.516 -2426.506)" fill="url(#linear-gradient-27)"/>
            <path id="Path_82" data-name="Path 82" d="M3092.7,2430.06a3.1,3.1,0,0,1-2.922,3.048l-19.651.969a2.786,2.786,0,0,1-2.975-2.8l.018-7.422a3.13,3.13,0,0,1,2.99-3.071l19.656-.835a2.756,2.756,0,0,1,2.906,2.781Z" transform="translate(-2963.46 -2419.95)" fill="url(#linear-gradient-28)"/>
          </g>
          <g id="Group_179" data-name="Group 179" transform="translate(0.025 23.563)">
            <path id="Path_83" data-name="Path 83" d="M2506.783,2595.69a3.39,3.39,0,0,1-3.228,3.251l-21.761,1.337a2.978,2.978,0,0,1-3.3-2.892l0-7.807a3.43,3.43,0,0,1,3.306-3.277l21.767-1.189a2.941,2.941,0,0,1,3.223,2.878Z" transform="translate(-2478.491 -2579.577)" fill="url(#linear-gradient-29)"/>
            <path id="Path_84" data-name="Path 84" d="M2710.995,2584.563a3.3,3.3,0,0,1-3.119,3.191l-21.01,1.291a2.9,2.9,0,0,1-3.187-2.845l.009-7.67a3.339,3.339,0,0,1,3.193-3.216l21.016-1.149a2.86,2.86,0,0,1,3.109,2.831Z" transform="translate(-2647.532 -2570.557)" fill="url(#linear-gradient-30)"/>
            <path id="Path_85" data-name="Path 85" d="M2901.615,2574.173a3.222,3.222,0,0,1-3.019,3.135l-20.32,1.249a2.819,2.819,0,0,1-3.079-2.8l.012-7.543a3.258,3.258,0,0,1,3.091-3.16l20.326-1.111a2.787,2.787,0,0,1,3.007,2.788Z" transform="translate(-2805.31 -2562.135)" fill="url(#linear-gradient-31)"/>
            <path id="Path_86" data-name="Path 86" d="M3092.364,2563.773a3.144,3.144,0,0,1-2.921,3.081l-19.643,1.207a2.745,2.745,0,0,1-2.974-2.757l.018-7.415a3.176,3.176,0,0,1,2.989-3.1l19.646-1.074a2.714,2.714,0,0,1,2.905,2.744Z" transform="translate(-2963.183 -2553.706)" fill="url(#linear-gradient-32)"/>
          </g>
          <g id="Group_180" data-name="Group 180" transform="translate(0.017 46.556)">
            <path id="Path_87" data-name="Path 87" d="M2506.723,2732.97a3.438,3.438,0,0,1-3.227,3.286l-21.75,1.595a2.935,2.935,0,0,1-3.3-2.85l0-7.8a3.477,3.477,0,0,1,3.3-3.313l21.756-1.448a2.9,2.9,0,0,1,3.221,2.837Z" transform="translate(-2478.445 -2715.703)" fill="url(#linear-gradient-33)"/>
            <path id="Path_88" data-name="Path 88" d="M2710.837,2719.472a3.35,3.35,0,0,1-3.117,3.225l-21,1.539a2.853,2.853,0,0,1-3.185-2.8l.008-7.663a3.387,3.387,0,0,1,3.192-3.251l21.006-1.4a2.819,2.819,0,0,1,3.108,2.791Z" transform="translate(-2647.405 -2704.729)" fill="url(#linear-gradient-34)"/>
            <path id="Path_89" data-name="Path 89" d="M2901.37,2706.869a3.269,3.269,0,0,1-3.018,3.169l-20.312,1.489a2.778,2.778,0,0,1-3.078-2.761l.013-7.536a3.3,3.3,0,0,1,3.089-3.194l20.317-1.352a2.746,2.746,0,0,1,3.005,2.749Z" transform="translate(-2805.11 -2694.484)" fill="url(#linear-gradient-35)"/>
            <path id="Path_90" data-name="Path 90" d="M3092.035,2694.251a3.189,3.189,0,0,1-2.92,3.113l-19.634,1.439a2.705,2.705,0,0,1-2.972-2.719l.018-7.408a3.22,3.22,0,0,1,2.987-3.137l19.639-1.307a2.675,2.675,0,0,1,2.9,2.707Z" transform="translate(-2962.912 -2684.227)" fill="url(#linear-gradient-36)"/>
          </g>
          <path id="Path_91" data-name="Path 91" d="M2506.663,2866.851a3.485,3.485,0,0,1-3.224,3.32l-21.741,1.845a2.9,2.9,0,0,1-3.3-2.809l0-7.792a3.526,3.526,0,0,1,3.3-3.349l21.747-1.7a2.858,2.858,0,0,1,3.219,2.8Z" transform="translate(-2478.39 -2779.479)" fill="url(#linear-gradient-37)"/>
          <path id="Path_92" data-name="Path 92" d="M2710.684,2851.044a3.4,3.4,0,0,1-3.116,3.259l-20.991,1.782a2.814,2.814,0,0,1-3.184-2.765l.008-7.656a3.434,3.434,0,0,1,3.191-3.285l21-1.64a2.779,2.779,0,0,1,3.107,2.753Z" transform="translate(-2647.272 -2766.602)" fill="url(#linear-gradient-38)"/>
          <path id="Path_93" data-name="Path 93" d="M2901.13,2836.284a3.313,3.313,0,0,1-3.016,3.2l-20.3,1.723a2.74,2.74,0,0,1-3.077-2.723l.013-7.529a3.348,3.348,0,0,1,3.087-3.227l20.309-1.586a2.707,2.707,0,0,1,3,2.711Z" transform="translate(-2804.905 -2754.578)" fill="url(#linear-gradient-39)"/>
          <path id="Path_94" data-name="Path 94" d="M2506.6,3010.385a3.538,3.538,0,0,1-3.223,3.357l-21.729,2.115a2.853,2.853,0,0,1-3.3-2.765l0-7.784a3.579,3.579,0,0,1,3.3-3.386l21.736-1.968a2.816,2.816,0,0,1,3.218,2.754Z" transform="translate(-2478.349 -2897.766)" fill="url(#linear-gradient-40)"/>
          <path id="Path_95" data-name="Path 95" d="M2710.519,2992.1a3.446,3.446,0,0,1-3.115,3.294l-20.981,2.041a2.771,2.771,0,0,1-3.182-2.722l.008-7.647a3.485,3.485,0,0,1,3.189-3.322l20.986-1.9a2.738,2.738,0,0,1,3.105,2.711Z" transform="translate(-2647.147 -2882.85)" fill="url(#linear-gradient-41)"/>
          <path id="Path_96" data-name="Path 96" d="M2900.874,2975.034a3.362,3.362,0,0,1-3.015,3.235l-20.293,1.975a2.7,2.7,0,0,1-3.075-2.682l.013-7.521a3.4,3.4,0,0,1,3.086-3.262l20.3-1.838a2.667,2.667,0,0,1,3,2.671Z" transform="translate(-2804.704 -2868.922)" fill="url(#linear-gradient-42)"/>
          <path id="Path_97" data-name="Path 97" d="M3088.463,2811.586l-19.633,1.534c-1.644.128-2.882,1.985-2.886,3.606l-.01,4.169-.008,3.481-.038,15.717-.011,4.623-.007,3.021a2.753,2.753,0,0,0,2.869,2.913l19.62-1.909a3.645,3.645,0,0,0,3.016-3.444l.008-2.981.013-4.563.045-15.513.01-3.436.012-4.115A3.073,3.073,0,0,0,3088.463,2811.586Z" transform="translate(-2962.369 -2742.588)" fill="url(#linear-gradient-43)"/>
        </g>
        <g id="Group_185" data-name="Group 185" transform="translate(1.245)">
          <g id="Group_182" data-name="Group 182" transform="translate(0.036)">
            <path id="Path_98" data-name="Path 98" d="M2513.89,2454.7a3.339,3.339,0,0,1-3.225,3.213l-21.746,1.072a3.021,3.021,0,0,1-3.3-2.934l0-7.81a3.378,3.378,0,0,1,3.3-3.238l21.751-.924A2.984,2.984,0,0,1,2513.9,2447Z" transform="translate(-2485.618 -2439.781)" fill="url(#linear-gradient-44)"/>
            <path id="Path_99" data-name="Path 99" d="M2711.156,2446.307a3.255,3.255,0,0,1-3.12,3.156l-21.02,1.036a2.939,2.939,0,0,1-3.188-2.887l.008-7.678a3.292,3.292,0,0,1,3.2-3.181l21.026-.893a2.9,2.9,0,0,1,3.112,2.872Z" transform="translate(-2648.91 -2433.008)" fill="url(#linear-gradient-45)"/>
            <path id="Path_100" data-name="Path 100" d="M2908.442,2437.907a3.174,3.174,0,0,1-3.017,3.1l-20.306,1a2.86,2.86,0,0,1-3.077-2.84l.013-7.545a3.208,3.208,0,0,1,3.089-3.124l20.312-.863a2.826,2.826,0,0,1,3,2.825Z" transform="translate(-2812.205 -2426.233)" fill="url(#linear-gradient-46)"/>
            <path id="Path_101" data-name="Path 101" d="M3099.058,2429.789a3.1,3.1,0,0,1-2.919,3.046l-19.629.968a2.783,2.783,0,0,1-2.971-2.794l.018-7.418a3.129,3.129,0,0,1,2.987-3.069l19.634-.834a2.752,2.752,0,0,1,2.9,2.78Z" transform="translate(-2969.968 -2419.684)" fill="url(#linear-gradient-47)"/>
          </g>
          <g id="Group_183" data-name="Group 183" transform="translate(0.027 23.55)">
            <path id="Path_102" data-name="Path 102" d="M2513.824,2595.307a3.387,3.387,0,0,1-3.224,3.249l-21.735,1.335a2.976,2.976,0,0,1-3.3-2.89l0-7.8a3.426,3.426,0,0,1,3.3-3.275l21.741-1.189a2.939,2.939,0,0,1,3.219,2.876Z" transform="translate(-2485.566 -2579.205)" fill="url(#linear-gradient-48)"/>
            <path id="Path_103" data-name="Path 103" d="M2710.995,2584.563a3.3,3.3,0,0,1-3.119,3.191l-21.01,1.291a2.9,2.9,0,0,1-3.187-2.845l.009-7.67a3.339,3.339,0,0,1,3.193-3.216l21.016-1.149a2.86,2.86,0,0,1,3.109,2.831Z" transform="translate(-2648.778 -2570.497)" fill="url(#linear-gradient-49)"/>
            <path id="Path_104" data-name="Path 104" d="M2908.188,2573.815a3.22,3.22,0,0,1-3.015,3.134l-20.3,1.247a2.817,2.817,0,0,1-3.076-2.8l.013-7.538a3.254,3.254,0,0,1,3.087-3.158l20.3-1.11a2.784,2.784,0,0,1,3,2.786Z" transform="translate(-2811.997 -2561.785)" fill="url(#linear-gradient-50)"/>
            <path id="Path_105" data-name="Path 105" d="M3098.718,2563.426a3.141,3.141,0,0,1-2.917,3.079l-19.62,1.205a2.742,2.742,0,0,1-2.971-2.755l.018-7.411a3.174,3.174,0,0,1,2.986-3.1l19.625-1.072a2.712,2.712,0,0,1,2.9,2.742Z" transform="translate(-2969.687 -2553.365)" fill="url(#linear-gradient-51)"/>
          </g>
          <g id="Group_184" data-name="Group 184" transform="translate(0.018 46.53)">
            <path id="Path_106" data-name="Path 106" d="M2513.76,2732.505a3.435,3.435,0,0,1-3.222,3.284l-21.724,1.593a2.933,2.933,0,0,1-3.3-2.848l0-7.794a3.475,3.475,0,0,1,3.3-3.311l21.731-1.446a2.9,2.9,0,0,1,3.217,2.835Z" transform="translate(-2485.516 -2715.252)" fill="url(#linear-gradient-52)"/>
            <path id="Path_107" data-name="Path 107" d="M2710.837,2719.472a3.35,3.35,0,0,1-3.117,3.225l-21,1.539a2.853,2.853,0,0,1-3.185-2.8l.008-7.663a3.387,3.387,0,0,1,3.192-3.251l21.006-1.4a2.819,2.819,0,0,1,3.108,2.791Z" transform="translate(-2648.65 -2704.656)" fill="url(#linear-gradient-53)"/>
            <path id="Path_108" data-name="Path 108" d="M2907.94,2706.434a3.266,3.266,0,0,1-3.014,3.167l-20.289,1.487a2.776,2.776,0,0,1-3.074-2.76l.013-7.531a3.3,3.3,0,0,1,3.086-3.192l20.293-1.35a2.744,2.744,0,0,1,3,2.748Z" transform="translate(-2811.793 -2694.057)" fill="url(#linear-gradient-54)"/>
            <path id="Path_109" data-name="Path 109" d="M3098.385,2693.832a3.186,3.186,0,0,1-2.916,3.111l-19.612,1.438a2.7,2.7,0,0,1-2.969-2.717l.018-7.4a3.218,3.218,0,0,1,2.984-3.135l19.616-1.305a2.673,2.673,0,0,1,2.9,2.705Z" transform="translate(-2969.414 -2683.812)" fill="url(#linear-gradient-55)"/>
          </g>
          <path id="Path_110" data-name="Path 110" d="M2513.7,2866.305a3.482,3.482,0,0,1-3.22,3.318l-21.715,1.844a2.893,2.893,0,0,1-3.3-2.808l0-7.787a3.524,3.524,0,0,1,3.3-3.347l21.72-1.7a2.856,2.856,0,0,1,3.216,2.8Z" transform="translate(-2485.457 -2778.987)" fill="url(#linear-gradient-56)"/>
          <path id="Path_111" data-name="Path 111" d="M2710.684,2851.044a3.4,3.4,0,0,1-3.116,3.259l-20.991,1.782a2.814,2.814,0,0,1-3.184-2.765l.008-7.656a3.434,3.434,0,0,1,3.191-3.285l21-1.64a2.779,2.779,0,0,1,3.107,2.753Z" transform="translate(-2648.516 -2766.555)" fill="url(#linear-gradient-57)"/>
          <path id="Path_112" data-name="Path 112" d="M2907.7,2835.775a3.309,3.309,0,0,1-3.013,3.2l-20.279,1.722a2.737,2.737,0,0,1-3.073-2.722l.013-7.524a3.346,3.346,0,0,1,3.084-3.225l20.285-1.584a2.706,2.706,0,0,1,3,2.71Z" transform="translate(-2811.586 -2754.117)" fill="url(#linear-gradient-58)"/>
          <path id="Path_113" data-name="Path 113" d="M2513.631,3009.755a3.535,3.535,0,0,1-3.219,3.355l-21.7,2.112a2.849,2.849,0,0,1-3.294-2.764l0-7.779a3.574,3.574,0,0,1,3.3-3.384l21.709-1.966a2.812,2.812,0,0,1,3.214,2.752Z" transform="translate(-2485.415 -2897.205)" fill="url(#linear-gradient-59)"/>
          <path id="Path_114" data-name="Path 114" d="M2710.519,2992.1a3.446,3.446,0,0,1-3.115,3.294l-20.981,2.041a2.771,2.771,0,0,1-3.182-2.722l.008-7.647a3.485,3.485,0,0,1,3.189-3.322l20.986-1.9a2.738,2.738,0,0,1,3.105,2.711Z" transform="translate(-2648.391 -2882.803)" fill="url(#linear-gradient-60)"/>
          <path id="Path_115" data-name="Path 115" d="M2907.439,2974.445a3.359,3.359,0,0,1-3.012,3.233l-20.27,1.972a2.7,2.7,0,0,1-3.071-2.681l.013-7.517a3.4,3.4,0,0,1,3.083-3.26l20.275-1.835a2.665,2.665,0,0,1,3,2.67Z" transform="translate(-2811.382 -2868.395)" fill="url(#linear-gradient-61)"/>
          <path id="Path_116" data-name="Path 116" d="M3094.851,2811.082l-19.609,1.532c-1.643.128-2.92,1.987-2.924,3.608l-.01,4.167-.008,3.479-.038,15.708-.011,4.62-.007,3.018a2.78,2.78,0,0,0,2.906,2.907l19.6-1.907a3.6,3.6,0,0,0,2.973-3.437l.009-2.979.014-4.56.045-15.5.01-3.434.012-4.113A3.04,3.04,0,0,0,3094.851,2811.082Z" transform="translate(-2968.864 -2742.126)" fill="url(#linear-gradient-62)"/>
        </g>
      </g>
    </g>
    <g id="Group_189" data-name="Group 189" transform="translate(896.317 594.537)">
      <path id="Path_117" data-name="Path 117" d="M2813.536,1623.562c0,16.674-13.038,29.79-29.7,29.279-17.342-.532-31.927-15.51-31.927-33.433s14.586-30.934,31.927-29.128C2800.5,1592.014,2813.536,1606.888,2813.536,1623.562Z" transform="translate(-2751.906 -1588.673)" fill="url(#linear-gradient-63)"/>
      <path id="Path_118" data-name="Path 118" d="M2839.1,1615.4c0,16.674-13.038,29.79-29.7,29.279-17.343-.533-31.927-15.51-31.927-33.433s14.585-30.934,31.927-29.129C2826.059,1583.853,2839.1,1598.727,2839.1,1615.4Z" transform="translate(-2772.964 -1581.95)" fill="url(#linear-gradient-64)"/>
      <path id="Path_119" data-name="Path 119" d="M2844.833,1622.036c0,15.939-12.475,28.457-28.394,27.942-16.537-.535-30.421-14.829-30.421-31.907s13.885-29.5,30.421-27.8C2832.357,1591.9,2844.833,1606.1,2844.833,1622.036Z" transform="translate(-2780.008 -1588.674)" fill="url(#linear-gradient-65)"/>
      <path id="Path_120" data-name="Path 120" d="M2848.913,1626.774c0,15.413-12.071,27.5-27.457,26.987-15.963-.536-29.349-14.341-29.349-30.817s13.386-28.476,29.349-26.86C2836.842,1597.643,2848.913,1611.36,2848.913,1626.774Z" transform="translate(-2785.025 -1593.475)" fill="url(#linear-gradient-66)"/>
      <g id="Group_188" data-name="Group 188" transform="translate(22.188 7.847)">
        <path id="Path_121" data-name="Path 121" d="M2891.943,1626.5h0a1.679,1.679,0,0,1,1.481,1.647v2.838a41.793,41.793,0,0,1,4.918.853q1.816.427,3.607,1.016a1.658,1.658,0,0,1,1.13,1.7l-.348,3.558a1.334,1.334,0,0,1-1.9,1.107,20.539,20.539,0,0,0-2.42-.9,21.946,21.946,0,0,0-4.565-.853l-.418-.034v8.127c4.271,1.195,7.408,2.8,9.435,4.824a10.2,10.2,0,0,1,3.022,7.531,9.915,9.915,0,0,1-3.342,7.83q-3.365,2.965-9.456,3.329v3.132a1.424,1.424,0,0,1-1.483,1.447h-.026a1.575,1.575,0,0,1-1.488-1.571v-3.09l-.66-.03a43.357,43.357,0,0,1-5.478-.584,35.727,35.727,0,0,1-3.785-.87,1.633,1.633,0,0,1-1.187-1.687l.41-4.574a1.447,1.447,0,0,1,2.022-1.194,29.691,29.691,0,0,0,3.329,1.093,29.246,29.246,0,0,0,5.323.889l.027-9.041c-4.1-1.015-7.169-2.517-9.186-4.508a10.323,10.323,0,0,1-3.043-7.67,8.966,8.966,0,0,1,3.3-7.45q3.278-2.6,9.3-2.6v-2.9A1.34,1.34,0,0,1,2891.943,1626.5Zm-1.487,10.849a5.008,5.008,0,0,0-2.963,1.044,3.047,3.047,0,0,0-1.063,2.439,3.278,3.278,0,0,0,.984,2.425,6.966,6.966,0,0,0,3.042,1.552Zm2.627,16.371v8.29a4.587,4.587,0,0,0,3.171-.985,3.55,3.55,0,0,0,1.1-2.791,3.813,3.813,0,0,0-1.025-2.729A7.534,7.534,0,0,0,2893.084,1653.721Z" transform="translate(-2877.858 -1626.494)" fill="url(#linear-gradient-67)"/>
      </g>
      <path id="Path_122" data-name="Path 122" d="M2816.487,1631.252c.927-9.163,9.348-13.041,8.249-21.469-.677-5.194-4.614-9.572-9.006-12.99-13.322,1.4-23.623,12.428-23.623,26.855,0,16.476,13.386,30.281,29.349,30.817a27.712,27.712,0,0,0,4.535-.221C2819.652,1647.935,2815.69,1639.124,2816.487,1631.252Z" transform="translate(-2785.025 -1594.178)" opacity="0.3" fill="url(#linear-gradient-68)" style="mix-blend-mode: multiply;isolation: isolate"/>
    </g>
    <g id="Group_192" data-name="Group 192" transform="translate(499.527 518.058)">
      <path id="Path_123" data-name="Path 123" d="M1188.278,3145.722s15.906,7.275,16.163,8.43-10.239-.411-14.526-.255-7.81-1.119-7.418-2.934,1.9-6.378,1.9-6.378Z" transform="translate(-1062.157 -2792.825)" fill="url(#linear-gradient-69)"/>
      <path id="Path_124" data-name="Path 124" d="M1191.234,3113.628l-.986,7.167s-2.523.891-4.214-.174l-.7-7.864Z" transform="translate(-1064.516 -2766.603)" fill="url(#linear-gradient-70)"/>
      <path id="Path_125" data-name="Path 125" d="M781.936,3117.658l-1.859,2.968a3.548,3.548,0,0,0-.431,2.779c.642,2.475,1.924,7.3,2.485,8.553.764,1.713,11.066,2.755,11.066,2.755s.922-1.291-1.214-2.858-3.51-1.816-4.26-4.123-1.237-8.826-1.237-8.826Z" transform="translate(-730.205 -2770.641)" fill="url(#linear-gradient-71)"/>
      <path id="Path_126" data-name="Path 126" d="M798.047,3070.793c-.678.538-4.011,10.575-4.011,10.575s-1.075,1.367-3.1-.659-.919-.909-.919-.909l.406-9.879Z" transform="translate(-738.589 -2731.313)" fill="url(#linear-gradient-72)"/>
      <path id="Path_127" data-name="Path 127" d="M1093.037,2253.339c.789,21.387.767,44.621-.523,69.438-1.453,27.947-4.3,53.773-7.864,77.183-1.3.039-2.675.042-4.106,0q-1.45-.044-2.809-.143a177.9,177.9,0,0,1-5.855-18.883,181.533,181.533,0,0,1-4.066-22.1c-3.008-24.229.59-26.333-1.855-44.29-2.166-15.9-5.3-16.532-8.924-39.112-3.933-24.5-.952-28.167.5-29.491C1063.7,2240.3,1078.14,2244.183,1093.037,2253.339Z" transform="translate(-957.213 -2050.323)" fill="url(#linear-gradient-73)"/>
      <path id="Path_128" data-name="Path 128" d="M1057.533,2245.952c5.88-5.375,19.292-2.08,33.445,6.179-16.347,17.576-18.152,29-16.215,36.42,2.189,8.385,8.9,10.815,8.852,19.979-.059,11.26-10.229,14.219-10.042,26.136.124,7.88,4.59,7.809,5.621,17.544,1.22,11.519-4.624,15.472-2.754,24,.8,3.667,3.113,8.462,9.71,13.412-.485,3.5-.982,6.959-1.5,10.356-1.3.038-2.675.042-4.106,0-.967-.029-1.9-.079-2.808-.143a177.861,177.861,0,0,1-5.855-18.883,181.548,181.548,0,0,1-4.066-22.1c-3.008-24.229.59-26.333-1.855-44.29-2.166-15.9-5.3-16.532-8.923-39.112C1053.1,2250.942,1056.084,2247.275,1057.533,2245.952Z" transform="translate(-957.213 -2050.338)" opacity="0.3" fill="url(#linear-gradient-74)" style="mix-blend-mode: multiply;isolation: isolate"/>
      <path id="Path_129" data-name="Path 129" d="M848.958,2242.109a480.213,480.213,0,0,0-66.168,140.74,8.58,8.58,0,0,1-4.7.717,8.745,8.745,0,0,1-5.317-2.889,138.307,138.307,0,0,1-1.139-34.1,117.527,117.527,0,0,1,4.857-25.619c3.906-12.492,6.572-13.188,11.661-26.4,5.281-13.716,4.018-17.145,9.085-34.312a226.672,226.672,0,0,1,11.3-30.1Z" transform="translate(-723.232 -2039.477)" fill="url(#linear-gradient-75)"/>
      <path id="Path_130" data-name="Path 130" d="M812.094,1784.731a38.539,38.539,0,0,1-5.4,2.532c-14.021,5.349-28.954-.786-37.683-12.1-.188-.233-.364-.471-.534-.711-.107-.138-.208-.283-.308-.421-.145-.2-.283-.4-.421-.6-1.672-2.432-3.526-5.392-3.972-5.16-.031.013-.141.051-.154.107-.006.013-.1.032-.1.05v.006c0,1.741,8.613,16.39,12.459,32.951,2.056,8.874,1.567,13.028,5.413,18.936.874,1.339,1.971,2.734,1.594,4.318-.949,3.966-10.006,5-16.3,5.713a146.243,146.243,0,0,1-18.949.591c-9.8-.145-10.568-.654-12.805.446-6.819,3.344-6.352,11.356-11.487,12.431-4.305.893-8.678-3.915-10.061-5.442-7.2-7.926-6.819-17.485-8.094-27.125-2.973-22.418-15.146-46.979-27.062-62.527-3.614-4.713-6.128-7.189-6.285-11.576-.459-12.859,19.923-27.062,36.885-28.69a126.865,126.865,0,0,1,20.79.427c3.117.3,6.442.729,10.012,1.351,8.66,1.514,14.687,2.571,20.827,5.38,24.774,11.331,13.223,26.553,40.034,44,9.22,6,24.341-12.877,24.2-7.648C824.575,1756.531,829.6,1774.707,812.094,1784.731Z" transform="translate(-641.569 -1609.476)" fill="url(#linear-gradient-76)"/>
      <path id="Path_131" data-name="Path 131" d="M881.423,1633.892a36.885,36.885,0,0,1-3.513,10.165c-2.214,3.82-11.365,5.189-13.271,5.854s2.876,3.985,7.963,5.189,19.964,1.991,22.878.39-1.892-2.091-5.392-3.931-4.671-9.32-3.587-12.5S881.423,1633.892,881.423,1633.892Z" transform="translate(-799.966 -1548.262)" fill="url(#linear-gradient-77)"/>
      <g id="Group_190" data-name="Group 190" transform="translate(77.202 72.358)">
        <path id="Path_132" data-name="Path 132" d="M951.686,1570.111c3.691-2.638,4.713-9.771,2.663-11.373-.586-.458-1.146-.248-9.475,3.094-4.137,1.66-6.171,2.543-6.841,4.37a5.792,5.792,0,0,0,.109,3.809,14.6,14.6,0,0,0,1.694,2.823c.895,1.288.835,1.244,1.109,1.619a20.312,20.312,0,0,0,4.259,4.168,14.166,14.166,0,0,1,.677-2.36,12.5,12.5,0,0,1,1.508-2.8C948.841,1571.519,950.488,1570.967,951.686,1570.111Z" transform="translate(-937.76 -1558.558)" fill="url(#linear-gradient-78)"/>
        <path id="Path_133" data-name="Path 133" d="M950.074,1621.739a7.666,7.666,0,0,0,6.888,3.109c4-.437,4.2-9.47,1.55-11.269a5.074,5.074,0,0,0-3.986-.338c-.813.267-1.077.621-2.414,1.031-1.233.378-1.592.255-1.954.589-.454.417-.756,1.4.146,4a2.186,2.186,0,0,0-2.371-.664,1.369,1.369,0,0,0-.512.545C946.9,1619.8,947.9,1621.07,950.074,1621.739Z" transform="translate(-945.608 -1603.402)" fill="url(#linear-gradient-79)"/>
      </g>
      <path id="Path_134" data-name="Path 134" d="M1222.332,2012.531a38.528,38.528,0,0,1-5.4,2.532c-14.021,5.349-28.954-.786-37.683-12.1-.189-.233-.365-.471-.534-.711-.107-.138-.208-.283-.308-.421-.145-.2-.283-.4-.421-.6-1.672-2.432-3.526-5.392-3.972-5.16-.031.013-.05.051-.063.107,0,.013-.006.032-.006.051q-2.018-3.167-4.041-6.329c1.458-2.533,3.519-5.116,6.046-5.185,5.361-.132,6.743,11.168,15.963,18.6,5.537,4.462,9.993,4.38,21.192,6.9C1215.8,2010.815,1218.887,2011.569,1222.332,2012.531Z" transform="translate(-1051.807 -1837.277)" opacity="0.3" fill="url(#linear-gradient-80)" style="mix-blend-mode: multiply;isolation: isolate"/>
      <path id="Path_135" data-name="Path 135" d="M543,1857.022c-6.783.605-22.05.881-32.848-9.109-17.977-16.63-9.059-48.286-2.8-61.9,7.174-15.609,18.593-24.346,25.532-29.656,8.609-6.588,13.864-10.608,20.186-9.708,16.35,2.328,27.674,35.838,18.7,45.432-2.938,3.141-5.848,1.362-14.352,4.071-2.769.882-23.438,7.465-27.037,22.688-2.519,10.654,3.894,23.13,15.307,31.51Z" transform="translate(-499.527 -1641.053)" fill="url(#linear-gradient-81)"/>
      <path id="Path_136" data-name="Path 136" d="M678.584,2001.576c-7.678-4.853-8.815-9.771-17.413-13.094-11.17-4.317-16.538,1.167-22.076-3.261-6.591-5.269-.756-14.449-5.688-30.38-.837-2.7-7.2-23.242-21.785-25.858-6.8-1.22-15.788,1.386-19.251,7.151-2.71,4.511-.185,7.875-3.48,12.856s-7.23,3.76-11.427,7.912c-6.664,6.592-7.686,20.493-1.669,28.354,2.806,3.667,6.453,5.116,13.315,7.845a64.659,64.659,0,0,0,11.443,3.361c-8.4-8.064-12.762-18.464-10.615-27.549,2.243-9.489,11.119-15.62,18.158-19.107,7.044,13.255,12.8,28.616,14.717,43.086,1.277,9.642.893,19.2,8.1,27.129,1.386,1.525,5.756,6.336,10.064,5.438,5.13-1.069,4.668-9.085,11.485-12.431,2.237-1.1,3.009-.589,12.81-.446a145.051,145.051,0,0,0,18.957-.591c5.594-.635,13.371-1.526,15.692-4.5C689.817,2007.214,683.077,2004.415,678.584,2001.576Z" transform="translate(-559.085 -1791.126)" opacity="0.3" fill="url(#linear-gradient-82)" style="mix-blend-mode: multiply;isolation: isolate"/>
      <g id="Group_191" data-name="Group 191" transform="translate(36.077 0)">
        <path id="Path_137" data-name="Path 137" d="M852.258,1884.792l-135.09,92.479a7.369,7.369,0,0,1-10.087-1.634l-1.445-1.98a6.891,6.891,0,0,1,1.785-9.8l2.7-1.835,109.951-74.75,22.6-15.366Z" transform="translate(-704.317 -1744.349)" fill="url(#linear-gradient-5)"/>
        <path id="Path_138" data-name="Path 138" d="M1533.671,1303.45c-36.735,26.012-87.771,16.528-113.953-22.42-26.811-39.884-16.732-94.225,22.447-120.065,38.472-25.374,89.329-12.752,113.7,26.936C1579.673,1226.687,1569.772,1277.888,1533.671,1303.45Zm-7.047-10.973c30.513-21.489,38.841-64.69,18.653-97.336-20.582-33.285-63.3-43.67-95.494-22.313-32.683,21.685-41.137,67.1-18.835,100.521C1452.81,1306.111,1495.659,1314.284,1526.624,1292.476Z" transform="translate(-1281.322 -1147.817)" fill="url(#linear-gradient-84)"/>
        <path id="Path_139" data-name="Path 139" d="M852.258,1884.792l-135.09,92.479a7.369,7.369,0,0,1-10.087-1.634l-1.445-1.98a6.891,6.891,0,0,1,1.785-9.8l2.7-1.841.006.006c6.637,6.668,11.017,7.611,13.952,6.869,6.875-1.741,4.839-12.4,15.266-20.878,10.313-8.384,18.641-3.124,30.336-12.45,7.077-5.644,4.55-7.988,11.74-15.152,14.329-14.279,29.192-9.8,36-20.287,1.791-2.759,3.168-6.775,2.652-12.852l22.6-15.366Z" transform="translate(-704.317 -1744.349)" fill="#d8dee8" opacity="0.6" style="mix-blend-mode: multiply;isolation: isolate"/>
        <path id="Path_140" data-name="Path 140" d="M1555.909,1319.531c-36.736,26.012-87.771,16.528-113.953-22.42-26.811-39.884-16.731-94.225,22.447-120.065,38.473-25.374,89.329-12.752,113.7,26.936C1601.911,1242.768,1592.01,1293.969,1555.909,1319.531Zm-7.047-10.973c30.513-21.489,38.841-64.69,18.653-97.336-20.582-33.285-63.3-43.67-95.494-22.313-32.683,21.685-41.137,67.1-18.835,100.521C1475.048,1322.192,1517.9,1330.365,1548.862,1308.557Z" transform="translate(-1299.643 -1161.066)" fill="url(#linear-gradient-85)"/>
        <path id="Path_141" data-name="Path 141" d="M1576.279,1338.622c-34.7,24.523-82.839,15.494-107.487-21.268-25.207-37.6-15.7-88.77,21.169-113.139,36.245-23.955,84.225-12.134,107.258,25.288C1619.757,1266.119,1610.412,1314.5,1576.279,1338.622Zm-4.56-7.1c30.513-21.49,38.841-64.69,18.653-97.336-20.582-33.285-63.305-43.67-95.494-22.313-32.683,21.685-41.137,67.1-18.835,100.521C1497.905,1345.155,1540.754,1353.328,1571.719,1331.521Z" transform="translate(-1322.5 -1184.029)" fill="url(#linear-gradient-86)"/>
      </g>
      <path id="Path_142" data-name="Path 142" d="M749.58,2337.727l1.51-3.754a7.73,7.73,0,0,0,4.49-1.3,5.839,5.839,0,0,1,3.628-.869c.569.158,2.716.064.268,1.232s-2.429,2.036-1.408,2.995,4.9,3.02,6.3,3.12-1.129,2.261-2.539,2.537a8.7,8.7,0,0,1-6.58-1.058C754.207,2340.014,749.58,2337.727,749.58,2337.727Z" transform="translate(-705.529 -2123.188)" fill="url(#linear-gradient-87)"/>
      <path id="Path_143" data-name="Path 143" d="M1456.337,1963.8c3.718-2.561,4.3-8.125,9.761-8.518,0,0,4.547-1.1,2.25,3.935S1454.943,1968.09,1456.337,1963.8Z" transform="translate(-1287.681 -1812.954)" fill="url(#linear-gradient-88)"/>
    </g>
    <g id="Group_194" data-name="Group 194" transform="translate(898.494 491.607)">
      <path id="Path_144" data-name="Path 144" d="M2850.059,1055.6c0,23.212-18.151,41.472-41.349,40.76-24.143-.741-44.448-21.592-44.448-46.544s20.3-43.065,44.448-40.551C2831.908,1011.682,2850.059,1032.389,2850.059,1055.6Z" transform="translate(-2764.262 -1007.032)" fill="url(#linear-gradient-63)"/>
      <path id="Path_145" data-name="Path 145" d="M2885.643,1044.24c0,23.212-18.151,41.472-41.349,40.76-24.143-.741-44.448-21.592-44.448-46.544s20.3-43.065,44.448-40.551C2867.492,1000.32,2885.643,1021.027,2885.643,1044.24Z" transform="translate(-2793.578 -997.672)" fill="url(#linear-gradient-64)"/>
      <path id="Path_146" data-name="Path 146" d="M2893.629,1053.477c0,22.19-17.366,39.616-39.528,38.9-23.021-.745-42.35-20.644-42.35-44.419s19.329-41.067,42.35-38.708C2876.263,1011.519,2893.629,1031.287,2893.629,1053.477Z" transform="translate(-2803.385 -1007.031)" fill="url(#linear-gradient-65)"/>
      <path id="Path_147" data-name="Path 147" d="M2899.309,1060.072c0,21.458-16.8,38.289-38.224,37.57-22.222-.746-40.857-19.965-40.857-42.9s18.635-39.642,40.857-37.392C2882.5,1019.517,2899.309,1038.614,2899.309,1060.072Z" transform="translate(-2810.368 -1013.715)" fill="url(#linear-gradient-66)"/>
      <g id="Group_193" data-name="Group 193" transform="translate(30.889 10.924)">
        <path id="Path_148" data-name="Path 148" d="M2959.213,1059.693h0a2.337,2.337,0,0,1,2.063,2.292v3.951a58.179,58.179,0,0,1,6.847,1.188q2.528.594,5.022,1.414a2.31,2.31,0,0,1,1.573,2.371l-.486,4.954a1.857,1.857,0,0,1-2.651,1.541,28.611,28.611,0,0,0-3.369-1.255,30.523,30.523,0,0,0-6.354-1.187l-.583-.048v11.314c5.946,1.664,10.313,3.9,13.134,6.717a14.2,14.2,0,0,1,4.208,10.484,13.8,13.8,0,0,1-4.653,10.9q-4.684,4.128-13.163,4.635v4.361a1.984,1.984,0,0,1-2.064,2.015h-.037a2.192,2.192,0,0,1-2.071-2.187v-4.3l-.919-.042a60.368,60.368,0,0,1-7.625-.813,49.539,49.539,0,0,1-5.27-1.212,2.271,2.271,0,0,1-1.653-2.348l.571-6.369a2.014,2.014,0,0,1,2.815-1.661,41.338,41.338,0,0,0,4.635,1.521,40.622,40.622,0,0,0,7.41,1.238l.037-12.586q-8.561-2.118-12.789-6.275a14.369,14.369,0,0,1-4.236-10.678q0-6.724,4.592-10.371c3.042-2.416,7.367-3.618,12.946-3.615V1061.6A1.866,1.866,0,0,1,2959.213,1059.693Zm-2.07,15.1a6.971,6.971,0,0,0-4.124,1.454,4.24,4.24,0,0,0-1.48,3.4,4.559,4.559,0,0,0,1.369,3.375,9.7,9.7,0,0,0,4.235,2.16Zm3.658,22.79v11.542a6.386,6.386,0,0,0,4.415-1.372,4.942,4.942,0,0,0,1.536-3.885,5.307,5.307,0,0,0-1.428-3.8A10.477,10.477,0,0,0,2960.8,1097.587Z" transform="translate(-2939.605 -1059.684)" fill="url(#linear-gradient-67)"/>
      </g>
      <path id="Path_149" data-name="Path 149" d="M2854.167,1066.307c1.292-12.755,13.014-18.155,11.484-29.888-.943-7.231-6.424-13.326-12.538-18.084-18.546,1.945-32.886,17.3-32.886,37.386,0,22.936,18.635,42.155,40.857,42.9a38.563,38.563,0,0,0,6.314-.308C2858.573,1089.532,2853.058,1077.265,2854.167,1066.307Z" transform="translate(-2810.368 -1014.695)" opacity="0.3" fill="url(#linear-gradient-68)" style="mix-blend-mode: multiply;isolation: isolate"/>
    </g>
  </g>
</svg>
