<svg xmlns="http://www.w3.org/2000/svg" width="98.898" height="31.902" viewBox="0 0 98.898 31.902">
  <g id="Group_342" data-name="Group 342" transform="translate(-393.819 -1073.919)">
    <g id="Group_783" data-name="Group 783">
      <path id="Path_2922" data-name="Path 2922" d="M479.6,992.6c-3.58,0-5.344-2.822-6.9-5.312-1.47-2.35-2.739-4.379-5.219-4.379s-3.745,2.029-5.213,4.379c-1.556,2.489-3.32,5.312-6.9,5.312s-5.343-2.822-6.9-5.312c-1.469-2.35-2.737-4.379-5.216-4.379s-3.745,2.029-5.214,4.379c-1.555,2.49-3.319,5.312-6.9,5.312s-5.341-2.823-6.9-5.312c-1.467-2.35-2.735-4.379-5.212-4.379s-3.746,2.029-5.214,4.379c-1.556,2.49-3.32,5.312-6.9,5.312s-5.342-2.822-6.9-5.312c-1.468-2.35-2.736-4.379-5.214-4.379a.993.993,0,1,1,0-1.986c3.579,0,5.342,2.822,6.9,5.312,1.468,2.349,2.737,4.379,5.214,4.379s3.746-2.03,5.214-4.379c1.556-2.489,3.32-5.312,6.9-5.312s5.341,2.823,6.9,5.312c1.467,2.349,2.735,4.379,5.212,4.379s3.745-2.03,5.213-4.379c1.556-2.49,3.32-5.312,6.9-5.312s5.343,2.822,6.9,5.312c1.469,2.349,2.737,4.379,5.216,4.379s3.745-2.03,5.214-4.379c1.556-2.49,3.319-5.312,6.9-5.312s5.345,2.822,6.9,5.312c1.47,2.349,2.739,4.379,5.218,4.379s3.749-2.03,5.219-4.379c1.557-2.49,3.321-5.312,6.9-5.312a.993.993,0,1,1,0,1.986c-2.48,0-3.749,2.029-5.219,4.379C484.948,989.774,483.184,992.6,479.6,992.6Z" transform="translate(0 93)" fill="#3a1062"/>
    </g>
    <g id="Group_784" data-name="Group 784">
      <path id="Path_2923" data-name="Path 2923" d="M479.6,1012.821c-3.58,0-5.344-2.822-6.9-5.312-1.47-2.35-2.739-4.38-5.219-4.38s-3.745,2.03-5.213,4.38c-1.556,2.49-3.32,5.312-6.9,5.312s-5.343-2.822-6.9-5.312c-1.469-2.35-2.737-4.38-5.216-4.38s-3.745,2.03-5.214,4.38c-1.555,2.49-3.319,5.312-6.9,5.312s-5.341-2.822-6.9-5.312c-1.467-2.35-2.735-4.38-5.212-4.38s-3.746,2.03-5.214,4.38c-1.556,2.49-3.32,5.312-6.9,5.312s-5.342-2.822-6.9-5.312c-1.468-2.35-2.736-4.38-5.214-4.38a.993.993,0,1,1,0-1.985c3.579,0,5.342,2.822,6.9,5.312,1.468,2.35,2.737,4.379,5.214,4.379s3.746-2.029,5.214-4.379c1.556-2.49,3.32-5.312,6.9-5.312s5.341,2.822,6.9,5.312c1.467,2.35,2.735,4.379,5.212,4.379s3.745-2.029,5.213-4.379c1.556-2.49,3.32-5.312,6.9-5.312s5.343,2.822,6.9,5.312c1.469,2.35,2.737,4.379,5.216,4.379s3.745-2.029,5.214-4.379c1.555-2.49,3.319-5.312,6.9-5.312s5.345,2.822,6.9,5.312c1.47,2.35,2.739,4.379,5.218,4.379s3.749-2.029,5.218-4.379c1.558-2.49,3.322-5.312,6.9-5.312a.993.993,0,1,1,0,1.985c-2.48,0-3.749,2.03-5.219,4.38C484.948,1010,483.184,1012.821,479.6,1012.821Z" transform="translate(0 93)" fill="#3a1062"/>
    </g>
  </g>
</svg>
