<?xml version="1.0" standalone="no"?>
<!DOCTYPE svg PUBLIC "-//W3C//DTD SVG 20010904//EN"
 "http://www.w3.org/TR/2001/REC-SVG-20010904/DTD/svg10.dtd">
<svg version="1.0" xmlns="http://www.w3.org/2000/svg"
 width="95.000000pt" height="95.000000pt" viewBox="0 0 95.000000 95.000000"
 preserveAspectRatio="xMidYMid meet">

<g transform="translate(0.000000,95.000000) scale(0.100000,-0.100000)"
fill="#000000" stroke="none">
<path d="M276 798 c-9 -12 -16 -39 -16 -60 0 -31 -4 -38 -20 -38 -19 0 -20 -7
-20 -190 0 -183 1 -190 20 -190 18 0 20 -7 20 -78 0 -125 -6 -122 219 -122
228 0 221 -4 221 118 0 75 2 82 20 82 19 0 20 7 20 190 0 183 -1 190 -20 190
-16 0 -20 7 -20 38 0 21 -7 48 -16 60 -15 21 -20 22 -204 22 -184 0 -189 -1
-204 -22z m388 -24 c3 -9 6 -29 6 -45 l0 -29 -190 0 -190 0 0 33 c0 55 8 57
196 57 147 0 173 -2 178 -16z m46 -134 l0 -30 -230 0 -230 0 0 30 0 30 230 0
230 0 0 -30z m0 -175 l0 -115 -230 0 -230 0 0 115 0 115 230 0 230 0 0 -115z
m-40 -175 l0 -30 -190 0 -190 0 0 30 0 30 190 0 190 0 0 -30z m-214 -76 c-21
-20 -20 -41 2 -53 12 -8 -6 -10 -69 -11 -93 0 -99 3 -99 56 0 24 1 24 91 24
82 0 89 -1 75 -16z m212 -21 l-3 -38 -85 -3 c-68 -2 -82 0 -72 10 16 16 15 33
-4 52 -14 15 -7 16 76 16 l91 0 -3 -37z"/>
<path d="M424 769 c-10 -16 15 -29 56 -29 19 0 41 4 49 9 25 16 1 31 -49 31
-27 0 -52 -5 -56 -11z"/>
<path d="M560 766 c0 -9 7 -16 16 -16 17 0 14 22 -4 28 -7 2 -12 -3 -12 -12z"/>
<path d="M580 634 c0 -17 22 -14 28 4 2 7 -3 12 -12 12 -9 0 -16 -7 -16 -16z"/>
<path d="M622 638 c6 -18 28 -21 28 -4 0 9 -7 16 -16 16 -9 0 -14 -5 -12 -12z"/>
<path d="M670 634 c0 -17 22 -14 28 4 2 7 -3 12 -12 12 -9 0 -16 -7 -16 -16z"/>
<path d="M465 474 c-22 -53 -33 -90 -27 -96 13 -13 25 5 61 92 35 85 36 90 17
90 -8 0 -30 -37 -51 -86z"/>
<path d="M350 505 l-34 -35 34 -35 c19 -19 40 -35 47 -35 21 0 15 27 -12 48
l-24 19 24 23 c14 13 25 29 25 37 0 23 -25 14 -60 -22z"/>
<path d="M550 527 c0 -8 11 -24 24 -36 l25 -23 -25 -23 c-13 -12 -24 -27 -24
-34 0 -21 26 -11 60 24 l34 35 -34 35 c-35 36 -60 45 -60 22z"/>
<path d="M341 201 c-20 -13 -4 -31 29 -31 16 0 32 5 36 11 7 12 -13 29 -36 29
-8 0 -21 -4 -29 -9z"/>
<path d="M561 197 c-15 -19 -4 -27 36 -27 21 0 33 5 33 14 0 26 -50 35 -69 13z"/>
</g>
</svg>
