<?xml version="1.0" standalone="no"?>
<!DOCTYPE svg PUBLIC "-//W3C//DTD SVG 20010904//EN"
 "http://www.w3.org/TR/2001/REC-SVG-20010904/DTD/svg10.dtd">
<svg version="1.0" xmlns="http://www.w3.org/2000/svg"
 width="95.000000pt" height="95.000000pt" viewBox="0 0 95.000000 95.000000"
 preserveAspectRatio="xMidYMid meet">

<g transform="translate(0.000000,95.000000) scale(0.100000,-0.100000)"
fill="#000000" stroke="none">
<path d="M376 640 l-161 -159 50 -51 c27 -27 54 -50 60 -50 18 0 408 398 401
409 -4 7 -44 11 -98 11 l-92 0 -160 -160z m294 123 c0 -12 -334 -343 -346
-343 -5 0 -23 14 -39 30 l-29 31 144 144 145 145 62 0 c35 0 63 -3 63 -7z"/>
<path d="M457 432 c-48 -48 -87 -92 -87 -97 0 -5 39 -49 87 -97 l88 -88 97 0
c54 0 98 3 98 8 0 4 -36 43 -80 87 -44 44 -80 84 -80 90 0 6 36 46 80 90 44
44 80 83 80 87 0 5 -44 8 -98 8 l-97 0 -88 -88z m121 -50 l-113 -111 -33 32
-32 31 77 78 77 77 65 3 c36 2 67 3 69 2 1 0 -49 -51 -110 -112z m46 -140 c36
-35 66 -64 66 -65 0 -1 -31 -1 -69 1 -63 3 -71 6 -102 38 l-33 34 29 30 c16
17 32 29 36 28 4 -2 37 -31 73 -66z"/>
</g>
</svg>
