<?xml version="1.0" standalone="no"?>
<!DOCTYPE svg PUBLIC "-//W3C//DTD SVG 20010904//EN"
 "http://www.w3.org/TR/2001/REC-SVG-20010904/DTD/svg10.dtd">
<svg version="1.0" xmlns="http://www.w3.org/2000/svg"
 width="95.000000pt" height="95.000000pt" viewBox="0 0 95.000000 95.000000"
 preserveAspectRatio="xMidYMid meet">

<g transform="translate(0.000000,95.000000) scale(0.100000,-0.100000)"
fill="#000000" stroke="none">
<path d="M222 790 c-27 -25 -30 -95 -7 -159 l14 -41 -50 -21 c-53 -23 -99 -69
-99 -99 0 -30 47 -77 96 -96 41 -16 45 -20 39 -43 -3 -14 -9 -53 -12 -87 -5
-55 -3 -63 18 -83 40 -37 101 -22 195 49 46 35 54 37 65 24 21 -26 91 -70 130
-83 74 -24 117 26 99 117 -5 26 -11 54 -15 64 -5 12 1 18 27 23 78 17 148 72
148 116 0 35 -51 80 -116 105 -27 9 -50 18 -51 18 -1 1 5 26 13 56 43 165 -66
197 -228 68 l-27 -21 -54 41 c-55 43 -114 72 -145 72 -10 0 -28 -9 -40 -20z
m93 -29 c22 -10 58 -34 79 -53 l39 -34 -22 -31 c-20 -26 -31 -32 -83 -37 -34
-4 -64 -4 -68 1 -27 30 -39 140 -18 161 16 16 26 15 73 -7z m370 -15 c13 -19
14 -32 5 -72 -16 -74 -16 -74 -94 -64 -50 6 -75 15 -93 32 l-25 23 37 32 c42
36 111 73 137 73 10 0 24 -11 33 -24z m-210 -116 c3 -5 -3 -10 -15 -10 -12 0
-18 5 -15 10 3 6 10 10 15 10 5 0 12 -4 15 -10z m82 -106 l42 -61 -36 -51
c-40 -59 -57 -67 -119 -57 -40 6 -48 12 -83 64 l-39 57 34 47 c40 55 63 67
119 64 36 -2 43 -7 82 -63z m-207 50 c0 -3 -10 -20 -22 -36 -20 -29 -22 -30
-35 -12 -25 34 -15 46 45 53 6 0 12 -2 12 -5z m288 -3 c11 -7 11 -14 -3 -41
l-17 -33 -19 24 c-42 52 -43 59 -7 59 18 0 39 -4 46 -9z m-373 -59 l21 -37
-24 -42 c-13 -24 -29 -43 -35 -43 -6 0 -30 9 -54 21 -81 39 -78 84 10 124 28
13 53 22 56 19 3 -2 14 -21 26 -42z m500 24 c66 -30 81 -49 67 -81 -13 -27
-70 -60 -123 -70 -34 -6 -36 -5 -54 34 -18 41 -18 42 5 91 14 29 30 50 39 50
9 0 39 -11 66 -24z m-414 -159 c9 -16 6 -17 -33 -11 -24 4 -44 8 -46 9 -2 2 4
18 13 36 l17 32 19 -24 c11 -13 24 -32 30 -42z m277 -8 c-14 -10 -58 -12 -58
-4 0 3 10 19 22 36 l22 30 14 -27 c12 -22 12 -28 0 -35z m-212 -71 l27 -26
-29 -26 c-35 -31 -121 -76 -145 -76 -29 0 -42 27 -37 78 3 26 10 59 16 73 10
25 10 25 76 15 49 -8 73 -18 92 -38z m253 11 c6 -18 11 -51 11 -75 0 -47 -17
-65 -54 -56 -24 6 -123 69 -132 84 -3 5 6 23 21 38 21 22 39 30 74 33 25 2 51
4 58 5 6 1 16 -12 22 -29z m-192 0 c-14 -8 -22 -8 -30 0 -8 8 -3 11 19 11 25
-1 27 -2 11 -11z"/>
<path d="M430 510 c-11 -11 -20 -29 -20 -40 0 -28 35 -60 65 -60 30 0 65 32
65 60 0 28 -35 60 -65 60 -14 0 -34 -9 -45 -20z"/>
</g>
</svg>
