<?xml version="1.0" standalone="no"?>
<!DOCTYPE svg PUBLIC "-//W3C//DTD SVG 20010904//EN"
 "http://www.w3.org/TR/2001/REC-SVG-20010904/DTD/svg10.dtd">
<svg version="1.0" xmlns="http://www.w3.org/2000/svg"
 width="95.000000pt" height="95.000000pt" viewBox="0 0 95.000000 95.000000"
 preserveAspectRatio="xMidYMid meet">

<g transform="translate(0.000000,95.000000) scale(0.100000,-0.100000)"
fill="#000000" stroke="none">
<path d="M397 803 c-4 -3 -7 -15 -7 -25 0 -10 -4 -18 -10 -18 -5 0 -10 4 -10
9 0 15 -30 21 -51 11 -25 -14 -25 -56 1 -70 27 -15 76 14 89 52 9 25 15 28 55
28 42 0 45 -2 56 -34 15 -47 59 -65 104 -43 33 15 34 15 66 -18 31 -32 31 -33
16 -64 -15 -28 -15 -34 -1 -60 9 -18 28 -34 50 -41 35 -12 36 -13 33 -58 -3
-43 -6 -47 -35 -55 -44 -13 -59 -55 -36 -103 17 -35 17 -35 -14 -65 -30 -31
-31 -31 -63 -14 -44 23 -85 6 -100 -41 -11 -32 -14 -34 -56 -34 -41 0 -46 3
-55 30 -7 19 -18 30 -30 30 -11 0 -30 7 -44 16 -46 30 -88 -21 -49 -60 19 -20
25 -20 50 -1 29 22 51 18 58 -10 6 -23 10 -25 70 -25 l64 0 12 35 c16 49 36
57 81 35 l36 -19 44 45 43 44 -18 34 c-24 44 -14 72 29 86 l35 12 0 63 0 64
-39 12 c-48 14 -59 44 -35 91 l16 32 -46 43 c-45 43 -46 44 -75 28 -50 -26
-71 -20 -88 25 l-16 40 -62 0 c-34 0 -65 -3 -68 -7z m-46 -58 c-1 -15 -24 -12
-29 3 -3 9 2 13 12 10 10 -1 17 -7 17 -13z m-6 -536 c10 -15 -1 -23 -20 -15
-9 3 -13 10 -10 16 8 13 22 13 30 -1z"/>
<path d="M192 668 c-25 -25 -7 -68 29 -68 9 0 22 7 29 15 9 11 34 15 96 15
l84 0 0 -30 c0 -25 4 -30 25 -30 14 0 25 5 25 10 0 6 -7 10 -15 10 -10 0 -15
10 -15 30 l0 30 -94 0 c-71 0 -97 4 -106 15 -15 18 -42 19 -58 3z m44 -19 c10
-17 -13 -36 -27 -22 -12 12 -4 33 11 33 5 0 12 -5 16 -11z"/>
<path d="M460 611 c0 -5 14 -12 30 -16 131 -29 138 -212 10 -240 -35 -8 -40
-25 -7 -25 29 0 82 33 102 63 45 69 18 170 -54 206 -42 22 -81 27 -81 12z"/>
<path d="M252 588 c-15 -15 -15 -41 0 -56 17 -17 57 -15 64 3 4 11 21 15 55
15 27 0 49 5 49 10 0 6 -22 10 -49 10 -31 0 -53 5 -61 15 -15 18 -42 19 -58 3z
m46 -30 c-3 -7 -11 -13 -18 -13 -7 0 -15 6 -17 13 -3 7 4 12 17 12 13 0 20 -5
18 -12z"/>
<path d="M158 509 c-24 -13 -23 -56 1 -69 21 -10 51 -4 51 11 0 5 20 9 44 9
26 0 48 6 56 15 7 8 26 15 42 15 17 0 27 4 23 10 -3 6 -21 10 -40 10 -19 0
-37 -4 -40 -10 -9 -15 -73 -12 -98 4 -16 11 -27 12 -39 5z m32 -34 c0 -8 -7
-15 -15 -15 -8 0 -15 7 -15 15 0 8 7 15 15 15 8 0 15 -7 15 -15z"/>
<path d="M421 503 c-25 -21 -21 -47 11 -64 15 -8 24 -7 36 5 10 8 40 16 67 18
64 4 65 22 1 26 -27 2 -59 10 -71 18 -20 13 -25 13 -44 -3z m39 -28 c0 -8 -7
-15 -15 -15 -8 0 -15 7 -15 15 0 8 7 15 15 15 8 0 15 -7 15 -15z"/>
<path d="M280 415 c-15 -18 -4 -52 19 -60 21 -6 51 3 51 16 0 15 48 10 54 -6
6 -17 56 -21 56 -5 0 6 -7 10 -15 10 -8 0 -15 7 -15 15 0 11 -11 15 -39 15
-25 0 -41 5 -45 15 -7 19 -50 19 -66 0z m45 -23 c0 -18 -20 -15 -23 4 -3 10 1
15 10 12 7 -3 13 -10 13 -16z"/>
<path d="M202 338 c-15 -15 -15 -41 0 -56 17 -17 57 -15 64 3 4 10 20 15 45
15 26 0 42 -5 45 -15 7 -17 104 -22 104 -5 0 6 -18 10 -40 10 -27 0 -43 5 -46
15 -4 10 -21 15 -54 15 -30 0 -52 6 -60 15 -15 18 -42 19 -58 3z m43 -28 c0
-7 -6 -15 -12 -17 -8 -3 -13 4 -13 17 0 13 5 20 13 18 6 -3 12 -11 12 -18z"/>
</g>
</svg>
